<?xml version="1.0" encoding="UTF-8"?>
<svg id="Layer_1" xmlns="http://www.w3.org/2000/svg" version="1.1" viewBox="0 0 571.9 231.4">
  <!-- Generator: Adobe Illustrator 29.3.1, SVG Export Plug-In . SVG Version: 2.1.0 Build 151)  -->
  <defs>
    <style>
      .st0, .st1, .st2 {
        fill: none;
        stroke: #7a724c;
        stroke-linecap: round;
        stroke-miterlimit: 10;
      }

      .st1 {
        stroke-width: 2px;
      }

      .st3 {
        fill: #7a724c;
      }

      .st2 {
        stroke-width: 5px;
      }
    </style>
  </defs>
  <g id="images">
    <g>
      <path class="st1" d="M456,74.9h0c-8.2,0-14.9,6.7-14.9,14.9v120c0,4.5-3.7,8.2-8.2,8.2h-.7c-4.5,0-8.2-3.7-8.2-8.2V78.2c0-30.7-24.9-55.5-55.5-55.5h0c-30.7,0-55.5,24.9-55.5,55.5v114.8c0,13.8-11.2,25-25,25h-2.9c-13.8,0-25-11.2-25-25v-114.8c0-30.7-24.9-55.5-55.5-55.5h0c-30.7,0-55.5,24.9-55.5,55.5v131.6c0,4.5-3.7,8.2-8.2,8.2h-.7c-4.5,0-8.2-3.7-8.2-8.2v-120c0-8.2-6.7-14.9-14.9-14.9h0"/>
      <path class="st3" d="M369.5,56.3c3.6,0,6.5,2.9,6.5,6.5s-2.9,6.5-6.5,6.5-6.5-2.9-6.5-6.5,2.9-6.5,6.5-6.5M369.5,51.3c-6.3,0-11.5,5.2-11.5,11.5s5.2,11.5,11.5,11.5,11.5-5.2,11.5-11.5-5.2-11.5-11.5-11.5h0Z"/>
      <path class="st3" d="M395.5,56.3c3.6,0,6.5,2.9,6.5,6.5s-2.9,6.5-6.5,6.5-6.5-2.9-6.5-6.5,2.9-6.5,6.5-6.5M395.5,51.3c-6.3,0-11.5,5.2-11.5,11.5s5.2,11.5,11.5,11.5,11.5-5.2,11.5-11.5-5.2-11.5-11.5-11.5h0Z"/>
      <path class="st3" d="M208.8,56.3c1.4,0,2.5,1.1,2.5,2.5s-1.1,2.5-2.5,2.5-2.5-1.1-2.5-2.5,1.1-2.5,2.5-2.5M208.8,51.3c-4.1,0-7.5,3.4-7.5,7.5s3.4,7.5,7.5,7.5,7.5-3.4,7.5-7.5-3.4-7.5-7.5-7.5h0Z"/>
      <path class="st3" d="M226.7,56.3c1.4,0,2.5,1.1,2.5,2.5s-1.1,2.5-2.5,2.5-2.5-1.1-2.5-2.5,1.1-2.5,2.5-2.5M226.7,51.3c-4.1,0-7.5,3.4-7.5,7.5s3.4,7.5,7.5,7.5,7.5-3.4,7.5-7.5-3.4-7.5-7.5-7.5h0Z"/>
      <line class="st2" x1="400" y1="85.7" x2="369.5" y2="85.7"/>
      <line class="st0" x1="195" y1="8" x2="199.6" y2="17"/>
      <line class="st0" x1="247.2" y1="15.1" x2="239.3" y2="21.4"/>
      <line class="st0" x1="231.9" y1="6.8" x2="229.2" y2="17.2"/>
      <line class="st0" x1="214.3" y1="5.5" x2="215.2" y2="16.2"/>
      <path class="st2" d="M203.5,80.8c2.9,0,2.9,2,5.9,2s2.9-2,5.9-2,2.9,2,5.9,2,2.9-2,5.9-2,2.9,2,5.9,2"/>
    </g>
    <g>
      <line class="st1" x1="512.7" y1="74.7" x2="459.6" y2="74.7"/>
      <line class="st1" x1="517.1" y1="74.7" x2="517.1" y2="74.7"/>
      <line class="st1" x1="520.9" y1="74.7" x2="520.9" y2="74.7"/>
      <line class="st1" x1="524.7" y1="74.7" x2="524.7" y2="74.7"/>
      <line class="st1" x1="540.4" y1="74.7" x2="540.4" y2="74.7"/>
      <line class="st1" x1="571.4" y1="74.7" x2="571.4" y2="74.7"/>
    </g>
    <g>
      <line class="st1" x1="60.3" y1="74.7" x2="113.4" y2="74.7"/>
      <line class="st1" x1="55.9" y1="74.7" x2="55.9" y2="74.7"/>
      <line class="st1" x1="52.1" y1="74.7" x2="52.1" y2="74.7"/>
      <line class="st1" x1="48.3" y1="74.7" x2="48.3" y2="74.7"/>
      <line class="st1" x1="32.6" y1="74.7" x2="32.6" y2="74.7"/>
      <line class="st1" x1="1.6" y1="74.7" x2="1.6" y2="74.7"/>
    </g>
  </g>
</svg>