<?xml version="1.0" encoding="UTF-8"?>
<svg id="images" xmlns="http://www.w3.org/2000/svg" version="1.1" viewBox="0 0 155 90">
  <!-- Generator: Adobe Illustrator 29.0.1, SVG Export Plug-In . SVG Version: 2.1.0 Build 192)  -->
  <defs>
    <style>
      .st0 {
        stroke-width: 2px;
      }

      .st0, .st1 {
        fill: none;
        stroke: #7a724c;
        stroke-miterlimit: 10;
      }

      .st1 {
        stroke-linecap: round;
        stroke-width: 3px;
      }

      .st2 {
        fill: #7a724c;
      }
    </style>
  </defs>
  <path class="st0" d="M148.3,24.3h0c-3.6,0-6.4,2.9-6.4,6.4v51.9c0,2-1.6,3.5-3.5,3.5h-.3c-2,0-3.5-1.6-3.5-3.5V25.8c0-13.3-10.7-24-24-24h0c-13.3,0-24,10.7-24,24v49.6c0,6-4.8,10.8-10.8,10.8h-1.3c-6,0-10.8-4.8-10.8-10.8V25.8c0-13.3-10.7-24-24-24h0c-13.3,0-24,10.7-24,24v56.9c0,2-1.6,3.5-3.5,3.5h-.3c-2,0-3.5-1.6-3.5-3.5V30.8c0-3.6-2.9-6.4-6.4-6.4h0"/>
  <path class="st1" d="M41.2,21.9c0-1.6-1.3-2.8-2.8-2.8s-2.8,1.3-2.8,2.8"/>
  <path class="st1" d="M52.5,21.9c0-1.6-1.3-2.8-2.8-2.8s-2.8,1.3-2.8,2.8"/>
  <path class="st1" d="M119.6,32.7c-2.4,3.6-7.2,4.6-11.5,4.9"/>
  <path class="st1" d="M39.4,36.4c-4.3-.5-7.3-2-9.5-5.8"/>
  <circle class="st2" cx="102.6" cy="19.6" r="3.4"/>
  <circle class="st2" cx="116.2" cy="19.6" r="3.4"/>
  <path class="st2" d="M150.4,1.8h-9.2c-1.5,0-2.8,1.3-2.8,2.8v14.5c0,1.5,1.3,2.8,2.8,2.8h9.2c1.5,0,2.8-1.3,2.8-2.8V4.6c0-1.5-1.3-2.8-2.8-2.8ZM151.6,11.2l-3,2.1,1.1,3.5c.2.6-.5,1.1-1,.7l-3-2.1-3,2.1c-.5.4-1.2,0-1-.7l1.1-3.5-3-2.1c-.5-.4-.2-1.2.4-1.2h3.7l1.1-3.5c.2-.6,1-.6,1.2,0l1.3,3.5h3.7c.6,0,.9.8.4,1.2Z"/>
</svg>