<?xml version="1.0" encoding="UTF-8"?>
<svg xmlns="http://www.w3.org/2000/svg" version="1.1" viewBox="0 0 571.852 231.435">
  <!-- Generator: Adobe Illustrator 29.0.0, SVG Export Plug-In . SVG Version: 2.1.0 Build 186)  -->
  <defs>
    <style>
      .st0, .st1, .st2 {
        fill: none;
        <!-- stroke: #943c13; -->
        stroke: #000000;
        stroke-linecap: round;
        stroke-miterlimit: 10;
      }

      .st1 {
        stroke-width: 2px;
      }

      .st3 {
        <!-- fill: #943c13; -->
        fill: #000000;
      }

      .st2 {
        stroke-width: 5px;
      }
    </style>
  </defs>
  <g id="images">
    <g>
      <path class="st1" d="M455.9767,74.89h0c-8.2354,0-14.9114,6.6761-14.9114,14.9114v120.0372c0,4.5294-3.6718,8.2013-8.2013,8.2013h-.7456c-4.5294,0-8.2013-3.6718-8.2013-8.2013V78.2451c0-30.6767-24.8684-55.5451-55.5451-55.5451h-.0001c-30.6767,0-55.5451,24.8684-55.5451,55.5451v114.807c0,13.8004-11.1875,24.9879-24.9879,24.9879h-2.9447c-13.8004,0-24.9879-11.1875-24.9879-24.9879v-114.807c0-30.6767-24.8684-55.5451-55.5451-55.5451h-.0001c-30.6767,0-55.5451,24.8684-55.5451,55.5451v131.5936c0,4.5294-3.6718,8.2013-8.2013,8.2013h-.7456c-4.5294,0-8.2013-3.6718-8.2013-8.2013v-120.0372c0-8.2354-6.6761-14.9114-14.9114-14.9114h0"/>
      <path class="st3" d="M369.503,56.3087c3.5866,0,6.4941,2.9075,6.4941,6.4941s-2.9075,6.4941-6.4941,6.4941-6.4941-2.9075-6.4941-6.4941,2.9075-6.4941,6.4941-6.4941M369.503,51.3087c-6.3379,0-11.4941,5.1562-11.4941,11.4941s5.1562,11.4941,11.4941,11.4941,11.4941-5.1562,11.4941-11.4941-5.1562-11.4941-11.4941-11.4941h0Z"/>
      <path class="st3" d="M395.4782,56.3087c3.5866,0,6.4941,2.9075,6.4941,6.4941s-2.9075,6.4941-6.4941,6.4941-6.4941-2.9075-6.4941-6.4941,2.9075-6.4941,6.4941-6.4941M395.4782,51.3087c-6.3379,0-11.4941,5.1562-11.4941,11.4941s5.1562,11.4941,11.4941,11.4941,11.4941-5.1562,11.4941-11.4941-5.1562-11.4941-11.4941-11.4941h0Z"/>
      <path class="st3" d="M208.8382,56.3087c1.3726,0,2.4853,1.1127,2.4853,2.4853s-1.1127,2.4853-2.4853,2.4853-2.4853-1.1127-2.4853-2.4853,1.1127-2.4853,2.4853-2.4853M208.8382,51.3087c-4.1274,0-7.4853,3.3579-7.4853,7.4853s3.3579,7.4853,7.4853,7.4853,7.4853-3.3579,7.4853-7.4853-3.3579-7.4853-7.4853-7.4853h0Z"/>
      <path class="st3" d="M226.697,56.3087c1.3726,0,2.4853,1.1127,2.4853,2.4853s-1.1127,2.4853-2.4853,2.4853-2.4853-1.1127-2.4853-2.4853,1.1127-2.4853,2.4853-2.4853M226.697,51.3087c-4.1274,0-7.4853,3.3579-7.4853,7.4853s3.3579,7.4853,7.4853,7.4853,7.4853-3.3579,7.4853-7.4853-3.3579-7.4853-7.4853-7.4853h0Z"/>
      <line class="st2" x1="400.0435" y1="85.6734" x2="369.503" y2="85.6734"/>
      <line class="st0" x1="195.0356" y1="7.9537" x2="199.6393" y2="16.9692"/>
      <line class="st0" x1="247.2316" y1="15.1359" x2="239.3082" y2="21.4361"/>
      <line class="st0" x1="231.8648" y1="6.8028" x2="229.1823" y2="17.161"/>
      <line class="st0" x1="214.2712" y1="5.4601" x2="215.1766" y2="16.2019"/>
      <path class="st2" d="M203.4507,80.8038c2.9338,0,2.9338,2,5.8675,2,2.9322,0,2.9322-2,5.8643-2,2.9347,0,2.9347,2,5.8694,2,2.9367,0,2.9367-2,5.8735-2s2.9367,2,5.8735,2"/>
    </g>
    <g>
      <line class="st1" x1="512.7423" y1="74.7383" x2="459.6255" y2="74.7383"/>
      <line class="st1" x1="517.0713" y1="74.7383" x2="517.0713" y2="74.7383"/>
      <line class="st1" x1="520.9022" y1="74.7383" x2="520.9022" y2="74.7383"/>
      <line class="st1" x1="524.7331" y1="74.7383" x2="524.7331" y2="74.7383"/>
      <line class="st1" x1="540.4473" y1="74.7383" x2="540.4473" y2="74.7383"/>
      <line class="st1" x1="571.3796" y1="74.7383" x2="571.3796" y2="74.7383"/>
    </g>
    <g>
      <line class="st1" x1="60.2577" y1="74.7383" x2="113.3745" y2="74.7383"/>
      <line class="st1" x1="55.9287" y1="74.7383" x2="55.9287" y2="74.7383"/>
      <line class="st1" x1="52.0978" y1="74.7383" x2="52.0978" y2="74.7383"/>
      <line class="st1" x1="48.2669" y1="74.7383" x2="48.2669" y2="74.7383"/>
      <line class="st1" x1="32.5527" y1="74.7383" x2="32.5527" y2="74.7383"/>
      <line class="st1" x1="1.6204" y1="74.7383" x2="1.6204" y2="74.7383"/>
    </g>
  </g>
  <g id="Layer_3">
    <g>
      <path class="st3" d="M281.9604,183.4365l.4688-.0195c-.3647-.3096-.5469-.7275-.5469-1.2539,0-.5908.2266-.9932.6797-1.207-.2031-.1406-.3672-.3232-.4922-.5488s-.1875-.4912-.1875-.7988c0-.9268.4907-1.3984,1.4727-1.4141h2.832v.7227h-2.7891c-.3022,0-.5278.0693-.6777.207s-.2246.3701-.2246.6953c0,.2686.0801.4912.2402.668s.3755.2803.6465.3086h2.8047v.7266h-2.7695c-.6147,0-.9219.3008-.9219.9023,0,.4736.2017.7979.6055.9727h3.0859v.7227h-4.2266v-.6836Z"/>
      <path class="st3" d="M286.187,169.6953c-.0835.041-.2319.0762-.4453.1016.3491.3359.5234.7363.5234,1.2031,0,.416-.1177.7578-.3535,1.0254s-.5347.4004-.8965.4004c-.4399,0-.7817-.168-1.0254-.502s-.3652-.8047-.3652-1.4121v-.7031h-.332c-.2524,0-.4536.0762-.6035.2266s-.2246.373-.2246.668c0,.2578.0649.4746.1953.6484s.2876.2617.4727.2617v.7266c-.2109,0-.4146-.0742-.6113-.2246s-.3521-.3535-.4668-.6094-.1719-.5391-.1719-.8457c0-.4863.1216-.8691.3652-1.1445s.5786-.4199,1.0059-.4297h1.9453c.3882,0,.6968-.0488.9258-.1484h.0625v.7578ZM285.6362,170.8945c0-.2266-.0586-.4414-.1758-.6445s-.2695-.3496-.457-.4414h-.8672v.5664c0,.8848.2593,1.3281.7773,1.3281.2266,0,.4038-.0762.5312-.2266s.1914-.3457.1914-.582Z"/>
      <path class="st3" d="M282.6089,161.1094c-.0181.1094-.0273.2285-.0273.3555,0,.4746.2017.7959.6055.9648h3v.7227h-4.2266v-.7031l.4883-.0117c-.3774-.2363-.5664-.5723-.5664-1.0078,0-.1406.0181-.2471.0547-.3203h.6719Z"/>
      <path class="st3" d="M285.6753,154.0254c0-.2578-.0781-.4834-.2344-.6758-.1562-.1934-.3516-.2998-.5859-.3203v-.6836c.2422.0127.4727.0957.6914.25.2188.1533.3931.3584.5234.6152.1304.2559.1953.5273.1953.8145,0,.5752-.1919,1.0332-.5762,1.373s-.9097.5098-1.5762.5098h-.1211c-.4116,0-.7773-.0762-1.0977-.2266-.3203-.1514-.5688-.3682-.7461-.6504-.1772-.2832-.2656-.6172-.2656-1.002,0-.4746.1421-.8682.4258-1.1816.2837-.3145.6523-.4814,1.1055-.502v.6836c-.2734.0205-.498.124-.6738.3105-.1758.1855-.2637.416-.2637.6895,0,.3672.1323.6514.3965.8535.2642.2012.6465.3027,1.1465.3027h.1367c.4868,0,.8618-.1006,1.125-.3008.2632-.2012.3945-.4873.3945-.8594Z"/>
      <path class="st3" d="M284.0347,146.9238c-.4141,0-.7866-.082-1.1172-.2441s-.5859-.3887-.7656-.6797-.2695-.6211-.2695-.9941c0-.5762.1992-1.041.5977-1.3965s.9282-.5332,1.5898-.5332h.0508c.4116,0,.7808.0781,1.1074.2363s.5815.3828.7637.6758.2734.6289.2734,1.0098c0,.5723-.1992,1.0371-.5977,1.3926s-.9258.5332-1.582.5332h-.0508ZM284.1206,146.1973c.4688,0,.8452-.1094,1.1289-.3262s.4258-.5078.4258-.873c0-.3672-.144-.6582-.4316-.875s-.6909-.3242-1.209-.3242c-.4634,0-.8394.1094-1.127.3301s-.4316.5117-.4316.877c0,.3574.1421.6445.4258.8633s.6899.3281,1.2188.3281Z"/>
      <path class="st3" d="M292.0723,183.3936c-.3936-.3203-.5898-.7373-.5898-1.25,0-.8936.5039-1.3438,1.5117-1.3516h2.793v.7227h-2.7969c-.3047.0029-.5303.0723-.6758.209-.1465.1367-.2188.3496-.2188.6387,0,.2344.0625.4404.1875.6172s.2891.3154.4922.4141h3.0117v.7227h-6v-.7227h2.2852Z"/>
      <path class="st3" d="M295.8652,173.1562c0,.5723-.1885,1.0391-.5645,1.3984-.377.3594-.8799.5391-1.5098.5391h-.1328c-.4199,0-.7939-.0801-1.123-.2402-.3301-.1602-.5879-.3848-.7734-.6719-.1865-.2871-.2793-.5996-.2793-.9355,0-.5488.1807-.9766.543-1.2812.3613-.3047.8799-.457,1.5547-.457h.3008v2.8633c.416-.0098.7529-.1328,1.0098-.3652.2559-.2324.3848-.5293.3848-.8887,0-.2559-.0527-.4707-.1562-.6484-.1045-.1777-.2422-.332-.4141-.4648l.3438-.4414c.5439.3535.8164.8848.8164,1.5938ZM292.0762,173.2461c0,.291.1055.5371.3184.7344.2119.1973.5098.3203.8926.3672v-2.1172h-.0547c-.3672.0215-.6523.1191-.8535.2969-.2021.1777-.3027.416-.3027.7188Z"/>
      <path class="st3" d="M292.209,163.8281c-.0186.1094-.0273.2285-.0273.3555,0,.4746.2012.7959.6055.9648h3v.7227h-4.2266v-.7031l.4883-.0117c-.3779-.2363-.5664-.5723-.5664-1.0078,0-.1406.0176-.2471.0547-.3203h.6719Z"/>
      <path class="st3" d="M291.5605,157.6816l.5312-.0234c-.4062-.3232-.6094-.7451-.6094-1.2656,0-.8936.5039-1.3438,1.5117-1.3516h2.793v.7227h-2.7969c-.3047.002-.5303.0723-.6758.209-.1465.1367-.2188.3496-.2188.6387,0,.2344.0625.4395.1875.6172.125.1768.2891.3145.4922.4141h3.0117v.7227h-4.2266v-.6836Z"/>
      <path class="st3" d="M295.7871,146.541c-.084.041-.2324.0762-.4453.1016.3486.3359.5234.7363.5234,1.2031,0,.416-.1182.7578-.3535,1.0254-.2363.2676-.5352.4004-.8965.4004-.4404,0-.7822-.168-1.0254-.502-.2441-.334-.3652-.8047-.3652-1.4121v-.7031h-.332c-.2529,0-.4541.0762-.6035.2266-.1504.1504-.2246.373-.2246.668,0,.2578.0645.4746.1953.6484.1299.1738.2871.2617.4727.2617v.7266c-.2109,0-.415-.0742-.6113-.2246-.1973-.1504-.3525-.3535-.4668-.6094-.1152-.2559-.1719-.5391-.1719-.8457,0-.4863.1211-.8691.3652-1.1445.2432-.2754.5781-.4199,1.0059-.4297h1.9453c.3877,0,.6963-.0488.9258-.1484h.0625v.7578ZM295.2363,147.7402c0-.2266-.0586-.4414-.1758-.6445s-.2695-.3496-.457-.4414h-.8672v.5664c0,.8848.2588,1.3281.7773,1.3281.2266,0,.4033-.0762.5312-.2266.127-.1504.1914-.3457.1914-.582Z"/>
      <path class="st3" d="M291.5605,139.3154l.5312-.0234c-.4062-.3232-.6094-.7451-.6094-1.2656,0-.8936.5039-1.3438,1.5117-1.3516h2.793v.7227h-2.7969c-.3047.0029-.5303.0723-.6758.209-.1465.1367-.2188.3496-.2188.6387,0,.2344.0625.4404.1875.6172s.2891.3154.4922.4141h3.0117v.7227h-4.2266v-.6836Z"/>
      <path class="st3" d="M293.6387,130.9609c-.6484,0-1.1699-.1543-1.5645-.4609s-.5918-.709-.5918-1.207c0-.4941.1689-.8867.5078-1.1758h-2.2031v-.7227h6v.6641l-.4531.0352c.3535.2891.5312.6914.5312,1.207,0,.4902-.2012.8887-.6016,1.1973-.4014.3086-.9248.4629-1.5703.4629h-.0547ZM293.7207,130.2383c.4785,0,.8535-.0996,1.125-.2969.2705-.1973.4062-.4707.4062-.8203,0-.459-.2061-.793-.6172-1.0039h-1.9414c-.3984.2168-.5977.5488-.5977.9961,0,.3535.1367.6309.4102.8281s.6777.2969,1.2148.2969Z"/>
      <path class="st3" d="M295.8652,119.7188c0,.5732-.1885,1.0391-.5645,1.3984-.377.3594-.8799.5391-1.5098.5391h-.1328c-.4199,0-.7939-.0801-1.123-.2402-.3301-.1602-.5879-.3838-.7734-.6719-.1865-.2871-.2793-.5996-.2793-.9355,0-.5488.1807-.9766.543-1.2812.3613-.3047.8799-.457,1.5547-.457h.3008v2.8633c.416-.0098.7529-.1318,1.0098-.3652.2559-.2324.3848-.5293.3848-.8887,0-.2549-.0527-.4707-.1562-.6484-.1045-.1768-.2422-.332-.4141-.4648l.3438-.4414c.5439.3545.8164.8857.8164,1.5938ZM292.0762,119.8086c0,.292.1055.5371.3184.7344.2119.1982.5098.3203.8926.3672v-2.1172h-.0547c-.3672.0215-.6523.1201-.8535.2969-.2021.1777-.3027.417-.3027.7188Z"/>
      <path class="st3" d="M295.1973,111.7554v-2.4727h.5898v3.3555h-.5312l-3.0977-2.332v2.2969h-.5977v-3.2031h.5117l3.125,2.3555Z"/>
    </g>
    <g>
      <path class="st3" d="M344.2227,142.6934c.3525.3145.8887.6484,1.6094,1.001.5215.2607.9355.4912,1.2422.6904s.5674.4561.7822.7705.3223.6934.3223,1.1377c0,.7676-.2881,1.415-.8633,1.9443-.5742.5283-1.3604.793-2.3574.793-.8125,0-1.5332-.2383-2.1621-.7129-.0918-.0615-.1377-.1533-.1377-.2764l-.0459-1.6553c0-.0469.042-.0732.127-.0811.084-.0078.1338.0117.1494.0576.291.7666.6631,1.3301,1.1152,1.6904s.9922.541,1.6211.541c.5215,0,.9199-.1152,1.1963-.3457.2764-.2295.4141-.5664.4141-1.0117,0-.4443-.0957-.8164-.2871-1.1152-.1924-.2988-.4297-.541-.7139-.7246-.2832-.1846-.6709-.3916-1.1611-.6211-.5059-.2451-.9082-.4639-1.207-.6553-.2998-.1914-.5527-.4492-.7598-.7705-.207-.3223-.3105-.7207-.3105-1.1963,0-.8125.3066-1.4414.9209-1.8857.6123-.4443,1.334-.667,2.1611-.667.5674,0,1.1123.1152,1.6338.3447.0918.0459.1494.085.1719.1152.0234.0303.0352.0771.0352.1377,0,.292-.0088.5215-.0234.6904l-.0234.8965c0,.0312-.0459.0459-.1377.0459s-.1377-.0146-.1377-.0459c0-.4902-.2529-.9004-.7588-1.2305-.5059-.3291-1.043-.4941-1.6104-.4941-.4141,0-.7402.1113-.9775.333-.2383.2227-.3564.5488-.3564.9775,0,.5674.1758,1.0088.5293,1.3223Z"/>
      <path class="st3" d="M349.8115,148.6396c0-.0928.0234-.1387.0693-.1387.4443,0,.7666-.0381.9658-.1143.1992-.0771.3369-.2266.4141-.4492.0762-.2217.1152-.5635.1152-1.0234v-11.9365c0-.5674-.0537-.9736-.1611-1.2188s-.2988-.3682-.5752-.3682c-.2451,0-.6133.1143-1.1035.3447l-.0459.0234c-.0615,0-.1035-.0381-.127-.1152s-.0039-.1299.0576-.1611l2.8291-1.3799h.0459c.1074,0,.1611.0537.1611.1611v14.6504c0,.46.0381.8018.1143,1.0234.0771.2227.2188.3721.4258.4492.207.0762.5332.1143.9775.1143.0303,0,.0459.0459.0459.1387,0,.0918-.0156.1377-.0459.1377-.3525,0-.6367-.0078-.8506-.0234l-1.1963-.0225-1.2188.0225c-.1992.0156-.4756.0234-.8281.0234-.0459,0-.0693-.0459-.0693-.1377ZM355.999,148.6396c0-.0928.0225-.1387.0684-.1387.4453,0,.7666-.0381.9668-.1143.1982-.0771.3369-.2266.4141-.4492.0762-.2217.1143-.5635.1143-1.0234v-3.749c0-.9346-.1758-1.625-.5283-2.0693-.3535-.4453-.8975-.667-1.6338-.667-.5977,0-1.1953.1953-1.7939.5859-.5977.3916-1.127.917-1.5869,1.5762l-.0918-.2764c.7051-.9355,1.3877-1.6104,2.0469-2.0244s1.3418-.6211,2.0469-.6211c.8438,0,1.4912.2344,1.9434.7021s.6787,1.1611.6787,2.0811v4.4619c0,.46.0381.8018.1152,1.0234.0762.2227.2188.3721.4258.4492.207.0762.5322.1143.9775.1143.0303,0,.0459.0459.0459.1387,0,.0918-.0156.1377-.0459.1377-.3535,0-.6367-.0078-.8516-.0234l-1.1953-.0225-1.2197.0225c-.1992.0156-.4756.0234-.8281.0234-.0459,0-.0684-.0459-.0684-.1377Z"/>
      <path class="st3" d="M362.5186,148.4785c-.3145-.3066-.4717-.6748-.4717-1.1045,0-.4287.1689-.8164.5059-1.1611s.9199-.6709,1.748-.9775l2.875-1.0811.0459.2988-2.7139,1.0352c-.4443.1836-.751.3838-.9199.5977-.1689.2148-.2529.4688-.2529.7598,0,.3672.1152.6816.3447.9424.2305.2607.5527.3916.9658.3916.3379,0,.7363-.1309,1.1963-.3916l1.541-.8965.0459.2754-1.7246,1.0811c-.3838.2461-.7207.4219-1.0117.5293-.292.1074-.5908.1611-.8975.1611-.5371,0-.9619-.1533-1.2764-.46ZM367.6816,148.9609c-.1992,0-.3721-.1689-.5176-.5059s-.2178-.7969-.2178-1.3799v-4.4385c0-1.6865-.5215-2.5303-1.5645-2.5303-.5215,0-.9277.165-1.2188.4941-.292.3301-.4912.7168-.5977,1.1621-.0615.2754-.1348.4863-.2188.6318-.085.1465-.2568.2188-.5176.2188-.2148,0-.3838-.0654-.5059-.1953-.123-.1299-.1846-.2793-.1846-.4482,0-.3379.2266-.6865.6787-1.0469s1.001-.6592,1.6445-.8975c.6445-.2373,1.2188-.3564,1.7246-.3564.6133,0,1.0703.2002,1.3691.5986s.4482.958.4482,1.6787v4.3467c0,.5674.0654.9746.1953,1.2197s.3564.3672.6787.3672c.291,0,.7129-.1143,1.2646-.3447h.0469c.0605,0,.0986.0352.1143.1035.0156.0693-.0078.1191-.0684.1494l-2.3691,1.127c-.0615.0312-.123.0459-.1846.0459Z"/>
      <path class="st3" d="M371.293,148.6396c0-.0928.0225-.1387.0684-.1387.4453,0,.7666-.0381.9668-.1143.1982-.0771.3369-.2266.4141-.4492.0762-.2217.1143-.5635.1143-1.0234v-4.5996c0-.5371-.0615-.9199-.1836-1.1504-.123-.2295-.3379-.3447-.6445-.3447-.2451,0-.6748.1152-1.2881.3447h-.0459c-.0615,0-.1035-.0342-.126-.1035-.0234-.0684-.0039-.1182.0576-.1494l2.5527-1.1953c.0303-.0156.0693-.0234.1152-.0234.1221,0,.2607.1729.4141.5176.1523.3447.2295.7861.2295,1.3223v5.3818c0,.46.0537.8018.1611,1.0234.1074.2227.3184.3721.6328.4492.3135.0762.8164.1143,1.5059.1143.0469,0,.0693.0459.0693.1387,0,.0918-.0225.1377-.0693.1377-.4902,0-.8818-.0078-1.1729-.0234l-1.6553-.0225-1.2197.0225c-.1992.0156-.4756.0234-.8281.0234-.0459,0-.0684-.0459-.0684-.1377ZM375.2832,140.2217c.4219-.3525.8242-.5293,1.207-.5293.3379,0,.6562.0879.9551.2646.2988.1758.4482.3789.4482.6094,0,.1533-.0576.291-.1719.4141-.1152.123-.2803.1836-.4951.1836-.1533,0-.291-.042-.4141-.126s-.1992-.1348-.2295-.1494c-.292-.2305-.583-.3457-.874-.3457-.2305,0-.4873.123-.7705.3682-.2842.2461-.7637.79-1.4375,1.6328l-.0918-.2295c.8271-1.043,1.4521-1.7402,1.874-2.0928Z"/>
      <path class="st3" d="M379.8477,148.6396c0-.0928.0156-.1387.0459-.1387.4453,0,.7705-.0381.9775-.1143.207-.0771.3486-.2266.4258-.4492.0771-.2217.1152-.5635.1152-1.0234v-4.3467c0-.5674-.0576-.9736-.1729-1.2188s-.3105-.3682-.5859-.3682c-.292,0-.6602.1152-1.1045.3447h-.0225c-.0615,0-.1074-.0381-.1387-.1152-.0303-.0762-.0156-.1299.0459-.1602l2.8525-1.334.0918-.0234c.0303,0,.0654.0156.1035.0459.0381.0312.0576.0693.0576.1152,0,.0918-.0078.3945-.0234.9082-.0146.5137-.0225,1.1084-.0225,1.7822v4.3701c0,.46.0342.8018.1035,1.0234.0684.2227.207.3721.4141.4492.207.0762.5322.1143.9775.1143.0459,0,.0684.0459.0684.1387,0,.0918-.0225.1377-.0684.1377-.3535,0-.6289-.0078-.8281-.0234l-1.2188-.0225-1.1963.0225c-.2148.0156-.499.0234-.8516.0234-.0303,0-.0459-.0459-.0459-.1377ZM381.0781,136.6797c-.1602-.1533-.2412-.3682-.2412-.6445,0-.2754.0811-.4902.2412-.6436.1611-.1533.3877-.2305.6787-.2305.2764,0,.4902.0771.6445.2305.1523.1533.2295.3682.2295.6436,0,.2764-.0771.4912-.2295.6445-.1543.1533-.3682.2295-.6445.2295-.291,0-.5176-.0762-.6787-.2295Z"/>
      <path class="st3" d="M385.8975,148.6396c0-.0928.0225-.1387.0684-.1387.4453,0,.7666-.0381.9668-.1143.1982-.0771.3369-.2266.4141-.4492.0762-.2217.1143-.5635.1143-1.0234v-4.5996c0-.5371-.0615-.9199-.1836-1.1504-.123-.2295-.3379-.3447-.6445-.3447-.2451,0-.6748.1152-1.2881.3447h-.0459c-.0615,0-.1035-.0342-.126-.1035-.0234-.0684-.0039-.1182.0576-.1494l2.5527-1.1953c.0303-.0156.0693-.0234.1152-.0234.1221,0,.2607.1729.4141.5176.1523.3447.2295.7861.2295,1.3223v5.3818c0,.46.0352.8018.1035,1.0234.0693.2227.207.3721.4141.4492.207.0762.5332.1143.9775.1143.0459,0,.0693.0459.0693.1387,0,.0918-.0234.1377-.0693.1377-.3525,0-.6289-.0078-.8281-.0234l-1.1953-.0225-1.2197.0225c-.1992.0156-.4756.0234-.8281.0234-.0459,0-.0684-.0459-.0684-.1377ZM392.084,148.6396c0-.0928.0234-.1387.0693-.1387.4443,0,.7666-.0381.9658-.1143.1992-.0771.3369-.2266.4141-.4492.0762-.2217.1152-.5635.1152-1.0234v-3.8408c0-.9346-.1768-1.6172-.5293-2.0469-.3525-.4287-.9053-.6436-1.6562-.6436-.583,0-1.1768.1953-1.7822.5859s-1.1309.916-1.5752,1.5752l-.0918-.2754c.7051-.9355,1.3867-1.6143,2.0469-2.0361.6592-.4209,1.334-.6318,2.0234-.6318.8584,0,1.5146.2295,1.9668.6895s.6787,1.1582.6787,2.0938v4.5303c0,.46.0342.8018.1035,1.0234.0684.2227.207.3721.4141.4492.207.0762.5322.1143.9775.1143.0459,0,.0684.0459.0684.1387,0,.0918-.0225.1377-.0684.1377-.3535,0-.6289-.0078-.8281-.0234l-1.1963-.0225-1.2188.0225c-.1992.0156-.4756.0234-.8281.0234-.0459,0-.0693-.0459-.0693-.1377Z"/>
      <path class="st3" d="M398.4209,154.5156c-.5908-.4678-.8857-1.0693-.8857-1.8057,0-.7666.3174-1.499.9541-2.1963s1.5527-1.3838,2.749-2.0586l.2529.2988c-.9355.4756-1.6416.9434-2.1162,1.4033-.4756.46-.7129,1.0889-.7129,1.8857,0,.7666.2568,1.3721.7705,1.8174.5137.4443,1.2764.667,2.2881.667,1.1348,0,2.0625-.2871,2.7832-.8623s1.0811-1.3457,1.0811-2.3115c0-.5986-.1494-1.0391-.4482-1.3223-.2988-.2842-.6982-.4648-1.1963-.541-.498-.0771-1.1846-.1152-2.0586-.1152s-1.5674-.0303-2.0811-.0918c-.5146-.0615-.9287-.207-1.2422-.4365-.3145-.2305-.4717-.5908-.4717-1.0811,0-.4756.1338-.8818.4023-1.2197.2686-.3369.7324-.7891,1.3916-1.3564l.2529.2295c-.3838.3223-.6514.6104-.8047.8633s-.2305.5176-.2305.793c0,.3379.1152.5947.3457.7705.2295.1768.624.3027,1.1846.3799.5586.0771,1.3525.1152,2.3799.1152,1.0117,0,1.8555.1416,2.5303.4248.6748.2842,1.0117.9092,1.0117,1.875,0,.8125-.2686,1.5713-.8047,2.2764-.5371.7051-1.2461,1.2656-2.1279,1.6797s-1.7979.6211-2.748.6211c-1.043,0-1.8594-.2344-2.4492-.7021ZM399.0645,144.8672c-.6211-.5674-.9316-1.2725-.9316-2.1162,0-.8428.3223-1.5557.9658-2.1387.6445-.582,1.5186-.874,2.6221-.874,1.1504,0,2.0049.2988,2.5645.8975.5596.5977.8398,1.2881.8398,2.0693,0,.5215-.1377,1.0127-.4141,1.4727s-.6826.832-1.2188,1.1152c-.5371.2842-1.166.4258-1.8867.4258-1.0732,0-1.9199-.2842-2.541-.8516ZM403.377,144.8447c.3369-.3682.5059-.9277.5059-1.6797,0-.9346-.2529-1.6865-.7588-2.2539-.5059-.5664-1.1426-.8506-1.9092-.8506-.583,0-1.0391.1758-1.3682.5283-.3301.3535-.4951.9053-.4951,1.6562,0,.6904.1309,1.2734.3916,1.748.2607.4756.5938.8281,1,1.0586.4062.2295.832.3447,1.2764.3447.5674,0,1.0195-.1846,1.3574-.5518ZM405.125,139.9453c.4287-.1533.8965-.2295,1.4033-.2295.0303,0,.0566.0537.0801.1602.0234.1074.0342.2148.0342.3223,0,.1846-.0195.3564-.0576.5176s-.0879.2266-.1494.1953c-.5361-.2139-1.0342-.3223-1.4941-.3223-.3076,0-.6602.0547-1.0586.1611l-.207.6904v-.7822c.5371-.3223,1.0195-.5596,1.4492-.7129Z"/>
    </g>
  </g>
</svg>