<?xml version="1.0" encoding="UTF-8"?>
<svg id="Layer_1" xmlns="http://www.w3.org/2000/svg" version="1.1" viewBox="0 0 571.9 231.4">
  <!-- Generator: Adobe Illustrator 29.3.1, SVG Export Plug-In . SVG Version: 2.1.0 Build 151)  -->
  <defs>
    <style>
      .st0 {
        stroke-width: 2px;
      }

      .st0, .st1 {
        fill: none;
        stroke: #7a724c;
        stroke-linecap: round;
        stroke-miterlimit: 10;
      }

      .st1 {
        stroke-width: 5px;
      }
    </style>
  </defs>
  <g id="Layer_11">
    <path class="st0" d="M456,65.4h0c-8.2,0-14.9,6.7-14.9,14.9v120c0,4.5-3.7,8.2-8.2,8.2h-.7c-4.5,0-8.2-3.7-8.2-8.2V68.7c0-30.7-24.9-55.5-55.5-55.5h0c-30.7,0-55.5,24.9-55.5,55.5v114.8c0,13.8-11.2,25-25,25h-2.9c-13.8,0-25-11.2-25-25v-114.8c0-30.7-24.9-55.5-55.5-55.5h0c-30.7,0-55.5,24.9-55.5,55.5v131.6c0,4.5-3.7,8.2-8.2,8.2h-.7c-4.5,0-8.2-3.7-8.2-8.2v-120c0-8.2-6.7-14.9-14.9-14.9h0"/>
    <path class="st1" d="M336.7,53.3c0-3.6,2.9-6.5,6.5-6.5s6.5,2.9,6.5,6.5"/>
    <path class="st1" d="M362.7,53.3c0-3.6,2.9-6.5,6.5-6.5s6.5,2.9,6.5,6.5"/>
    <path class="st1" d="M215.3,53.3c0,3.6-2.9,6.5-6.5,6.5s-6.5-2.9-6.5-6.5"/>
    <path class="st1" d="M241.3,53.3c0,3.6-2.9,6.5-6.5,6.5s-6.5-2.9-6.5-6.5"/>
    <path class="st1" d="M361.4,72.4c0,3.6-2.9,6.5-6.5,6.5s-6.5-2.9-6.5-6.5"/>
    <line class="st1" x1="202.3" y1="75.9" x2="215.3" y2="75.9"/>
    <g>
      <line class="st0" x1="512.2" y1="65" x2="459.1" y2="65"/>
      <line class="st0" x1="516.5" y1="65" x2="516.5" y2="65"/>
      <line class="st0" x1="520.4" y1="65" x2="520.4" y2="65"/>
      <line class="st0" x1="524.2" y1="65" x2="524.2" y2="65"/>
      <line class="st0" x1="539.9" y1="65" x2="539.9" y2="65"/>
      <line class="st0" x1="570.9" y1="65" x2="570.9" y2="65"/>
    </g>
    <g>
      <line class="st0" x1="59.6" y1="65" x2="112.8" y2="65"/>
      <line class="st0" x1="55.3" y1="65" x2="55.3" y2="65"/>
      <line class="st0" x1="51.5" y1="65" x2="51.5" y2="65"/>
      <line class="st0" x1="47.6" y1="65" x2="47.6" y2="65"/>
      <line class="st0" x1="31.9" y1="65" x2="31.9" y2="65"/>
      <line class="st0" x1="1" y1="65" x2="1" y2="65"/>
    </g>
  </g>
</svg>