<?xml version="1.0" encoding="UTF-8"?>
<svg id="Layer_1" xmlns="http://www.w3.org/2000/svg" version="1.1" viewBox="0 0 571.852 231.435">
  <!-- Generator: Adobe Illustrator 29.0.0, SVG Export Plug-In . SVG Version: 2.1.0 Build 186)  -->
  <defs>
    <style>
      .st0 {
        stroke-width: 2px;
      }

      .st0, .st1 {
        fill: none;
        <!-- stroke: #943c13; -->
        stroke: #000000;
        stroke-linecap: round;
        stroke-miterlimit: 10;
      }

      .st1 {
        stroke-width: 5px;
      }
    </style>
  </defs>
  <g id="Layer_11" data-name="Layer_1">
    <path class="st0" d="M456.032,65.39h0c-8.235,0-14.911,6.676-14.911,14.911v120.037c0,4.529-3.672,8.201-8.201,8.201h-.746c-4.529,0-8.201-3.672-8.201-8.201V68.745c0-30.677-24.868-55.545-55.545-55.545h0c-30.677,0-55.545,24.868-55.545,55.545v114.807c0,13.8-11.187,24.988-24.988,24.988h-2.945c-13.8,0-24.988-11.187-24.988-24.988v-114.807c0-30.677-24.868-55.545-55.545-55.545h0c-30.677,0-55.545,24.868-55.545,55.545v131.594c0,4.529-3.672,8.201-8.201,8.201h-.746c-4.529,0-8.201-3.672-8.201-8.201v-120.037c0-8.235-6.676-14.911-14.911-14.911h0"/>
    <path class="st1" d="M336.71,53.302c0-3.587,2.908-6.494,6.494-6.494s6.494,2.908,6.494,6.494"/>
    <path class="st1" d="M362.685,53.302c0-3.587,2.908-6.494,6.494-6.494s6.494,2.908,6.494,6.494"/>
    <path class="st1" d="M215.288,53.302c0,3.587-2.908,6.494-6.494,6.494s-6.494-2.908-6.494-6.494"/>
    <path class="st1" d="M241.264,53.302c0,3.587-2.908,6.494-6.494,6.494s-6.494-2.908-6.494-6.494"/>
    <path class="st1" d="M361.417,72.376c0,3.587-2.908,6.494-6.494,6.494s-6.494-2.908-6.494-6.494"/>
    <line class="st1" x1="202.3" y1="75.872" x2="215.288" y2="75.872"/>
    <g>
      <line class="st0" x1="512.214" y1="65.007" x2="459.097" y2="65.007"/>
      <line class="st0" x1="516.543" y1="65.007" x2="516.543" y2="65.007"/>
      <line class="st0" x1="520.374" y1="65.007" x2="520.374" y2="65.007"/>
      <line class="st0" x1="524.205" y1="65.007" x2="524.205" y2="65.007"/>
      <line class="st0" x1="539.919" y1="65.007" x2="539.919" y2="65.007"/>
      <line class="st0" x1="570.852" y1="65.007" x2="570.852" y2="65.007"/>
    </g>
    <g>
      <line class="st0" x1="59.637" y1="65.007" x2="112.754" y2="65.007"/>
      <line class="st0" x1="55.308" y1="65.007" x2="55.308" y2="65.007"/>
      <line class="st0" x1="51.477" y1="65.007" x2="51.477" y2="65.007"/>
      <line class="st0" x1="47.647" y1="65.007" x2="47.647" y2="65.007"/>
      <line class="st0" x1="31.932" y1="65.007" x2="31.932" y2="65.007"/>
      <line class="st0" x1="1" y1="65.007" x2="1" y2="65.007"/>
    </g>
  </g>
</svg>