<?xml version="1.0" encoding="UTF-8"?>
<svg id="Layer_1" xmlns="http://www.w3.org/2000/svg" version="1.1" viewBox="0 0 155 90">
  <!-- Generator: Adobe Illustrator 30.0.0, SVG Export Plug-In . SVG Version: 2.1.1 Build 123)  -->
  <g id="images">
    <path d="M148.3,24.3h0c-3.60001,0-6.39999,2.9-6.39999,6.4v51.9c0,2-1.60001,3.5-3.5,3.5h-.3c-2,0-3.5-1.6-3.5-3.5V25.8c0-13.3-10.7-24-24-24h0c-13.3,0-24,10.7-24,24v49.59999c0,6-4.8,10.8-10.8,10.8h-1.3c-6,0-10.8-4.8-10.8-10.8V25.8c0-13.3-10.7-24-24-24h0c-13.3,0-24,10.7-24,24v56.9c0,2-1.6,3.5-3.5,3.5h-.3c-2,0-3.5-1.6-3.5-3.5V30.8c0-3.6-2.9-6.4-6.4-6.4h0" fill="none" stroke="#7a724c" stroke-miterlimit="10" stroke-width="2"/>
    <path d="M41.2,21.9c0-1.6-1.3-2.8-2.8-2.8s-2.8,1.3-2.8,2.8" fill="none" stroke="#7a724c" stroke-linecap="round" stroke-miterlimit="10" stroke-width="3"/>
    <path d="M52.5,21.9c0-1.6-1.3-2.8-2.8-2.8s-2.8,1.3-2.8,2.8" fill="none" stroke="#7a724c" stroke-linecap="round" stroke-miterlimit="10" stroke-width="3"/>
    <path d="M39.4,36.4c-4.3-.5-7.3-2-9.5-5.8" fill="none" stroke="#7a724c" stroke-linecap="round" stroke-miterlimit="10" stroke-width="3"/>
  </g>
  <path d="M100.47096,12.55216c0-2.0718,1.67952-3.75132,3.75132-3.75132s3.75132,1.67952,3.75132,3.75132" fill="none" stroke="#7a724c" stroke-linecap="round" stroke-miterlimit="10" stroke-width="3"/>
  <path d="M114.50794,15.16854c1.38182-1.54366,3.7534-1.67486,5.29706-.29304s1.67486,3.7534.29304,5.29706" fill="none" stroke="#7a724c" stroke-linecap="round" stroke-miterlimit="10" stroke-width="3"/>
  <circle cx="104.99105" cy="27.4569" r="6.9569" fill="none" stroke="#7a724c" stroke-linecap="round" stroke-miterlimit="10" stroke-width="3"/>
  <g>
    <path d="M138.57442,19.1l1.03136-5.95898,1.89492.00409c.7476.00273,1.30557.14461,1.67392.42564s.53614.6753.5034,1.18279c-.04093.62755-.38471,1.07229-1.03136,1.33422.23192.08185.41268.22987.54228.44406s.18485.47134.16575.77148c-.0382.57571-.26534,1.01908-.68144,1.33013s-.98566.46657-1.70871.46657h-2.39014ZM140.41614,16.56661l-.24966,1.42426.83901.00409c.26193,0,.48021-.06446.65483-.19372s.2783-.3015.31105-.51636c.0764-.45429-.09823-.69235-.52387-.71418l-1.03136-.00409ZM140.57575,15.62529l.65893.00409c.60845-.01364.94951-.24761,1.02318-.7019.06548-.44883-.16644-.67461-.69576-.67734l-.74487-.00409-.24147,1.37924Z" fill="#7a724c"/>
    <path d="M145.45017,17.99497h2.42698l-.19236,1.10503h-3.82668l1.03136-5.95898h1.4038l-.8431,4.85395Z" fill="#7a724c"/>
    <path d="M151.88391,17.98269h-1.90311l-.52796,1.11731h-1.54295l3.15548-5.95898h1.31785l1.10094,5.95898h-1.457l-.14324-1.11731ZM150.50466,16.87766h1.236l-.26193-2.05454-.97406,2.05454Z" fill="#7a724c"/>
  </g>
  <line x1="137.37602" y1="6.52035" x2="139.04436" y2="9.85705" fill="none" stroke="#7a724c" stroke-linecap="round" stroke-miterlimit="10" stroke-width="2"/>
  <line x1="152.48443" y1="5.53367" x2="150.99689" y2="8.95481" fill="none" stroke="#7a724c" stroke-linecap="round" stroke-miterlimit="10" stroke-width="2"/>
  <line x1="145.60988" y1="8.1887" x2="145.60988" y2="4.33867" fill="none" stroke="#7a724c" stroke-linecap="round" stroke-miterlimit="10" stroke-width="2"/>
</svg>