<?xml version="1.0" encoding="UTF-8"?>
<svg id="Isolation_Mode" xmlns="http://www.w3.org/2000/svg" version="1.1" viewBox="0 0 571.852 231.435">
  <!-- Generator: Adobe Illustrator 29.0.0, SVG Export Plug-In . SVG Version: 2.1.0 Build 186)  -->
  <defs>
    <style>
      .st0, .st1, .st2, .st3 {
        fill: none;
        <!-- stroke: #943c13; -->
        stroke: #000000;
        stroke-linecap: round;
        stroke-miterlimit: 10;
      }

      .st1 {
        stroke-width: 2px;
      }

      .st2 {
        stroke-width: 3px;
      }

      .st4 {
        <!-- fill: #943c13; -->
        fill: #000000;
      }

      .st3 {
        stroke-width: 5px;
      }
    </style>
  </defs>
  <path class="st1" d="M455.9767,70.2376h0c-8.2354,0-14.9114,6.6761-14.9114,14.9114v120.0372c0,4.5294-3.6718,8.2013-8.2013,8.2013h-.7456c-4.5294,0-8.2013-3.6718-8.2013-8.2013V73.5926c0-30.6767-24.8684-55.5451-55.5451-55.5451h-.0001c-30.6767,0-55.5451,24.8684-55.5451,55.5451v114.807c0,13.8004-11.1875,24.9879-24.9879,24.9879h-2.9447c-13.8004,0-24.9879-11.1875-24.9879-24.9879v-114.807c0-30.6767-24.8684-55.5451-55.5451-55.5451h-.0001c-30.6767,0-55.5451,24.8684-55.5451,55.5451v131.5936c0,4.5294-3.6718,8.2013-8.2013,8.2013h-.7456c-4.5294,0-8.2013-3.6718-8.2013-8.2013v-120.0372c0-8.2354-6.6761-14.9114-14.9114-14.9114h0"/>
  <g>
    <line class="st1" x1="512.7423" y1="70.1797" x2="459.6255" y2="70.1797"/>
    <line class="st1" x1="517.0713" y1="70.1797" x2="517.0713" y2="70.1797"/>
    <line class="st1" x1="520.9022" y1="70.1797" x2="520.9022" y2="70.1797"/>
    <line class="st1" x1="524.7331" y1="70.1797" x2="524.7331" y2="70.1797"/>
    <line class="st1" x1="540.4473" y1="70.1797" x2="540.4473" y2="70.1797"/>
    <line class="st1" x1="571.3796" y1="70.1797" x2="571.3796" y2="70.1797"/>
  </g>
  <g>
    <line class="st1" x1="60.2577" y1="70.1797" x2="113.3745" y2="70.1797"/>
    <line class="st1" x1="55.9287" y1="70.1797" x2="55.9287" y2="70.1797"/>
    <line class="st1" x1="52.0978" y1="70.1797" x2="52.0978" y2="70.1797"/>
    <line class="st1" x1="48.2669" y1="70.1797" x2="48.2669" y2="70.1797"/>
    <line class="st1" x1="32.5527" y1="70.1797" x2="32.5527" y2="70.1797"/>
    <line class="st1" x1="1.6204" y1="70.1797" x2="1.6204" y2="70.1797"/>
  </g>
  <path class="st3" d="M353.699,77.4614c2.7388,0,2.7388,4,5.4777,4s2.7395-4,5.4791-4c2.7381,0,2.7381,4,5.4761,4,2.7404,0,2.7404-4,5.4809-4,2.7423,0,2.7423,4,5.4846,4s2.7423-4,5.4846-4"/>
  <path class="st0" d="M339.7584,42.9713c5.8424-5.8424,15.3148-5.8424,21.1572,0,4.6739,4.6739,4.6739,12.2518,0,16.9258-3.7391,3.7391-9.8015,3.7391-13.5406,0-2.9913-2.9913-2.9913-7.8412,0-10.8325,2.393-2.393,6.2729-2.393,8.666,0,1.9144,1.9144,1.9144,5.0184,0,6.9328-1.5315,1.5315-4.0147,1.5315-5.5462,0-1.2252-1.2252-1.2252-3.2117,0-4.437.9802-.9802,2.5694-.9802,3.5496,0,.7842.7842.7842,2.0555,0,2.8397-.6273.6273-1.6444.6273-2.2717,0-.5019-.5019-.5019-1.3155,0-1.8174"/>
  <path class="st0" d="M374.4146,42.9713c5.8424-5.8424,15.3148-5.8424,21.1572,0,4.6739,4.6739,4.6739,12.2518,0,16.9258-3.7391,3.7391-9.8015,3.7391-13.5406,0-2.9913-2.9913-2.9913-7.8412,0-10.8325,2.393-2.393,6.2729-2.393,8.666,0,1.9144,1.9144,1.9144,5.0184,0,6.9328-1.5315,1.5315-4.0147,1.5315-5.5462,0-1.2252-1.2252-1.2252-3.2117,0-4.437.9802-.9802,2.5694-.9802,3.5496,0,.7842.7842.7842,2.0555,0,2.8397-.6273.6273-1.6444.6273-2.2717,0-.5019-.5019-.5019-1.3155,0-1.8174"/>
  <circle class="st3" cx="206.9305" cy="59.3349" r="5.785"/>
  <circle class="st3" cx="237.0733" cy="59.3349" r="5.785"/>
  <g>
    <path class="st4" d="M327.3359,137.7473c-.667-.4365-1.1611-1-1.4834-1.6904-.3213-.6895-.4824-1.418-.4824-2.1846,0-.9814.2412-1.8359.7246-2.5645.4824-.7285,1.1035-1.2881,1.8623-1.6787.7588-.3916,1.5371-.5869,2.335-.5869.6592,0,1.2607.1309,1.8057.3906.5439.2617.8164.5674.8164.9199,0,.1846-.0615.3418-.1846.4717-.123.1309-.2832.1953-.4824.1953-.3535,0-.6602-.2139-.9199-.6436-.2002-.291-.4336-.5098-.7021-.6553s-.625-.2188-1.0693-.2188c-.9199,0-1.6289.334-2.127,1.001-.499.667-.748,1.5674-.748,2.7021,0,1.2881.3301,2.3574.9893,3.208.6592.8516,1.6406,1.2773,2.9443,1.2773.9805,0,1.7705-.2686,2.3682-.8057h.0459c.0469,0,.0889.0234.127.0693s.0342.084-.0117.1152c-.5215.46-1.0498.7969-1.5869,1.0117s-1.1191.3223-1.748.3223c-.9814,0-1.8057-.2188-2.4727-.6562Z"/>
    <path class="st4" d="M335.5938,137.8283c-.3145-.3066-.4717-.6748-.4717-1.1045,0-.4287.168-.8164.5059-1.1611.3369-.3447.9199-.6709,1.748-.9775l2.875-1.0811.0459.2988-2.7139,1.0352c-.4453.1836-.752.3838-.9199.5977-.1689.2148-.2529.4688-.2529.7598,0,.3672.1152.6816.3447.9424.2305.2607.5518.3916.9658.3916.3369,0,.7363-.1309,1.1963-.3916l1.541-.8965.0459.2754-1.7246,1.0811c-.3838.2461-.7217.4219-1.0127.5293s-.5898.1611-.8965.1611c-.5371,0-.9629-.1533-1.2764-.46ZM340.7568,138.3108c-.1992,0-.3721-.1689-.5176-.5059s-.2188-.7969-.2188-1.3799v-4.4385c0-1.6865-.5215-2.5303-1.5635-2.5303-.5215,0-.9277.165-1.2188.4941-.292.3301-.4912.7168-.5986,1.1621-.0615.2754-.1338.4863-.2178.6318-.085.1465-.2578.2188-.5176.2188-.2148,0-.3838-.0654-.5068-.1953-.1221-.1299-.1836-.2793-.1836-.4482,0-.3379.2266-.6865.6787-1.0469s1-.6592,1.6445-.8975c.6436-.2373,1.2188-.3564,1.7246-.3564.6133,0,1.0693.2002,1.3691.5986.2988.3984.4482.958.4482,1.6787v4.3467c0,.5674.0645.9746.1953,1.2197.1299.2451.3564.3672.6787.3672.291,0,.7129-.1143,1.2646-.3447h.0459c.0615,0,.0996.0352.1152.1035.0146.0693-.0078.1191-.0693.1494l-2.3682,1.127c-.0615.0312-.123.0459-.1846.0459Z"/>
    <path class="st4" d="M346.1846,137.9778c-.3984-.2832-.5977-.7549-.5977-1.415v-5.4736c0-.4141-.0273-.7012-.0811-.8623s-.1572-.2686-.3105-.3223-.4219-.0801-.8047-.0801c-.0459,0-.0693-.0459-.0693-.1387,0-.0918.0234-.1377.0693-.1377.583,0,1.0537-.1611,1.4141-.4824.3604-.3223.541-.7285.541-1.2197,0-.0459.0615-.0684.1836-.0684.1074,0,.1611.0225.1611.0684v7.9355c0,1.2725.6211,1.9092,1.8633,1.9092.7051,0,1.3262-.207,1.8633-.6211l.0459-.0234c.0459,0,.084.0342.1152.1035.0303.0693.0225.1191-.0234.1494-.5674.3994-1.0664.6826-1.4951.8516-.4297.168-.874.2529-1.334.2529-.6289,0-1.1426-.1426-1.541-.4258ZM348.2432,130.0774c-.5293-.0459-1.1387-.0693-1.8281-.0693v-.4824c.9346,0,2.1074-.0771,3.5186-.2305.0459,0,.084.0498.1152.1494.0303.0996.0459.2266.0459.3799,0,.123-.0234.2451-.0693.3682-.0459.1221-.0996.1758-.1611.1602-.5518-.1377-1.0918-.2295-1.6211-.2754Z"/>
    <path class="st4" d="M353.0273,137.8283c-.3145-.3066-.4717-.6748-.4717-1.1045,0-.4287.168-.8164.5059-1.1611.3369-.3447.9199-.6709,1.748-.9775l2.875-1.0811.0459.2988-2.7139,1.0352c-.4453.1836-.752.3838-.9199.5977-.1689.2148-.2529.4688-.2529.7598,0,.3672.1152.6816.3447.9424.2305.2607.5518.3916.9658.3916.3369,0,.7363-.1309,1.1963-.3916l1.541-.8965.0459.2754-1.7246,1.0811c-.3838.2461-.7217.4219-1.0127.5293s-.5898.1611-.8965.1611c-.5371,0-.9629-.1533-1.2764-.46ZM358.1904,138.3108c-.1992,0-.3721-.1689-.5176-.5059s-.2188-.7969-.2188-1.3799v-4.4385c0-1.6865-.5215-2.5303-1.5635-2.5303-.5215,0-.9277.165-1.2188.4941-.292.3301-.4912.7168-.5986,1.1621-.0615.2754-.1338.4863-.2178.6318-.085.1465-.2578.2188-.5176.2188-.2148,0-.3838-.0654-.5068-.1953-.1221-.1299-.1836-.2793-.1836-.4482,0-.3379.2266-.6865.6787-1.0469s1-.6592,1.6445-.8975c.6436-.2373,1.2188-.3564,1.7246-.3564.6133,0,1.0693.2002,1.3691.5986.2988.3984.4482.958.4482,1.6787v4.3467c0,.5674.0645.9746.1953,1.2197.1299.2451.3564.3672.6787.3672.291,0,.7129-.1143,1.2646-.3447h.0459c.0615,0,.0996.0352.1152.1035.0146.0693-.0078.1191-.0693.1494l-2.3682,1.127c-.0615.0312-.123.0459-.1846.0459Z"/>
    <path class="st4" d="M361.6865,137.9895c0-.0928.0225-.1387.0684-.1387.4453,0,.7666-.0381.9668-.1143.1982-.0771.3369-.2266.4141-.4492.0762-.2217.1143-.5635.1143-1.0234v-11.9365c0-.5674-.0537-.9736-.1611-1.2188s-.2988-.3682-.5742-.3682c-.2461,0-.6143.1143-1.1045.3447h-.0459c-.0615,0-.1035-.0381-.127-.1152-.0225-.0762-.0039-.1221.0576-.1377l2.8291-1.3574c.0312-.0146.0693-.0225.1152-.0225.0303,0,.0654.0156.1035.0459.0381.0312.0576.0693.0576.1152v14.6504c0,.46.0342.7979.1035,1.0127s.207.3643.4141.4482.5322.126.9775.126c.0459,0,.0684.0459.0684.1387,0,.0918-.0225.1377-.0684.1377-.3379,0-.6133-.0078-.8281-.0234l-1.2422-.0225-1.2422.0225c-.1992.0156-.4756.0234-.8281.0234-.0459,0-.0684-.0459-.0684-.1377Z"/>
    <path class="st4" d="M369.667,137.7707c-.6748-.4375-1.1963-1.0273-1.5645-1.7715-.3672-.7432-.5518-1.5518-.5518-2.4258,0-.9971.2412-1.8438.7246-2.542.4834-.6973,1.0957-1.2188,1.8398-1.5635.7441-.3457,1.5068-.5176,2.2891-.5176.8887,0,1.667.2227,2.334.667s1.1807,1.0312,1.541,1.7588c.3604.7285.541,1.499.541,2.3115,0,.9512-.2188,1.7871-.6562,2.5078-.4365.7207-1.0234,1.2725-1.7588,1.6553-.7363.3838-1.541.5752-2.415.5752s-1.6484-.2188-2.3232-.6553ZM374.7266,137.1154c.5068-.5986.7598-1.541.7598-2.8291,0-.9199-.1611-1.752-.4834-2.4961-.3223-.7432-.7744-1.3301-1.3574-1.7588-.582-.4297-1.249-.6445-2.001-.6445-.874,0-1.5557.3027-2.0469.9092-.4902.6055-.7354,1.4756-.7354,2.6104,0,.9199.1611,1.7676.4824,2.541.3223.7744.7666,1.3955,1.334,1.8633s1.2197.7012,1.9551.7012c.8896,0,1.5869-.2988,2.0928-.8965Z"/>
    <path class="st4" d="M379.3379,143.8654c-.5898-.4678-.8848-1.0693-.8848-1.8057,0-.7666.3174-1.499.9541-2.1963.6357-.6973,1.5527-1.3838,2.748-2.0586l.2529.2988c-.9346.4756-1.6406.9434-2.1152,1.4033-.4756.46-.7129,1.0889-.7129,1.8857,0,.7666.2559,1.3721.7705,1.8174.5127.4443,1.2764.667,2.2881.667,1.1348,0,2.0625-.2871,2.7832-.8623s1.0811-1.3457,1.0811-2.3115c0-.5986-.1494-1.0391-.4492-1.3223-.2988-.2842-.6973-.4648-1.1953-.541-.499-.0771-1.1846-.1152-2.0586-.1152s-1.5684-.0303-2.082-.0918-.9277-.207-1.2412-.4365c-.3145-.2305-.4717-.5908-.4717-1.0811,0-.4756.1338-.8818.4023-1.2197.2676-.3369.7324-.7891,1.3916-1.3564l.2529.2295c-.3838.3223-.6523.6104-.8047.8633-.1543.2529-.2305.5176-.2305.793,0,.3379.1152.5947.3447.7705.2305.1768.625.3027,1.1846.3799s1.3535.1152,2.3809.1152c1.0117,0,1.8555.1416,2.5303.4248.6738.2842,1.0117.9092,1.0117,1.875,0,.8125-.2686,1.5713-.8047,2.2764-.5371.7051-1.2461,1.2656-2.1279,1.6797s-1.7979.6211-2.748.6211c-1.043,0-1.8594-.2344-2.4502-.7021ZM379.9824,134.217c-.6211-.5674-.9316-1.2725-.9316-2.1162,0-.8428.3223-1.5557.9658-2.1387.6445-.582,1.5176-.874,2.6221-.874,1.1504,0,2.0049.2988,2.5645.8975.5596.5977.8398,1.2881.8398,2.0693,0,.5215-.1387,1.0127-.4141,1.4727-.2764.46-.6826.832-1.2197,1.1152-.5361.2842-1.165.4258-1.8857.4258-1.0732,0-1.9199-.2842-2.541-.8516ZM384.2949,134.1945c.3369-.3682.5059-.9277.5059-1.6797,0-.9346-.2529-1.6865-.7588-2.2539-.5059-.5664-1.1426-.8506-1.9092-.8506-.583,0-1.0391.1758-1.3691.5283-.3291.3535-.4941.9053-.4941,1.6562,0,.6904.1299,1.2734.3916,1.748.2598.4756.5938.8281,1,1.0586.4062.2295.832.3447,1.2764.3447.5674,0,1.0195-.1846,1.3574-.5518ZM386.043,129.2951c.4287-.1533.8965-.2295,1.4023-.2295.0312,0,.0576.0537.0811.1602.0225.1074.0342.2148.0342.3223,0,.1846-.0195.3564-.0576.5176s-.0879.2266-.1494.1953c-.5371-.2139-1.0352-.3223-1.4951-.3223-.3066,0-.6592.0547-1.0576.1611l-.207.6904v-.7822c.5361-.3223,1.0195-.5596,1.4492-.7129Z"/>
    <path class="st4" d="M389.1475,137.9895c0-.0928.0156-.1387.0459-.1387.4443,0,.7705-.0381.9775-.1143.207-.0771.3486-.2266.4258-.4492.0762-.2217.1152-.5635.1152-1.0234v-4.3467c0-.5674-.0576-.9736-.1729-1.2188s-.3105-.3682-.5869-.3682c-.291,0-.6592.1152-1.1035.3447h-.0234c-.0615,0-.1074-.0381-.1377-.1152-.0312-.0762-.0156-.1299.0459-.1602l2.8525-1.334.0918-.0234c.0303,0,.0645.0156.1035.0459.0381.0312.0576.0693.0576.1152,0,.0918-.0078.3945-.0234.9082s-.0225,1.1084-.0225,1.7822v4.3701c0,.46.0342.8018.1035,1.0234.0684.2227.207.3721.4141.4492.2061.0762.5322.1143.9766.1143.0469,0,.0693.0459.0693.1387,0,.0918-.0225.1377-.0693.1377-.3525,0-.6289-.0078-.8271-.0234l-1.2197-.0225-1.1953.0225c-.2148.0156-.499.0234-.8516.0234-.0303,0-.0459-.0459-.0459-.1377ZM390.3779,126.0295c-.1611-.1533-.2412-.3682-.2412-.6445,0-.2754.0801-.4902.2412-.6436s.3867-.2305.6787-.2305c.2764,0,.4902.0771.6436.2305s.2305.3682.2305.6436c0,.2764-.0771.4912-.2305.6445s-.3672.2295-.6436.2295c-.292,0-.5176-.0762-.6787-.2295Z"/>
    <path class="st4" d="M395.1963,137.9895c0-.0928.0234-.1387.0693-.1387.4443,0,.7666-.0381.9658-.1143.1992-.0771.3369-.2266.4141-.4492.0762-.2217.1152-.5635.1152-1.0234v-4.5996c0-.5371-.0615-.9199-.1846-1.1504-.123-.2295-.3369-.3447-.6436-.3447-.2461,0-.6748.1152-1.2881.3447h-.0459c-.0615,0-.1035-.0342-.127-.1035-.0225-.0684-.0039-.1182.0576-.1494l2.5527-1.1953c.0312-.0156.0693-.0234.1152-.0234.1221,0,.2607.1729.4141.5176s.2295.7861.2295,1.3223v5.3818c0,.46.0352.8018.1035,1.0234.0693.2227.207.3721.4141.4492.207.0762.5332.1143.9775.1143.0459,0,.0693.0459.0693.1387,0,.0918-.0234.1377-.0693.1377-.3525,0-.6289-.0078-.8281-.0234l-1.1953-.0225-1.2188.0225c-.2002.0156-.4756.0234-.8281.0234-.0459,0-.0693-.0459-.0693-.1377ZM401.3828,137.9895c0-.0928.0234-.1387.0693-.1387.4443,0,.7666-.0381.9658-.1143.1992-.0771.3369-.2266.4141-.4492.0771-.2217.1152-.5635.1152-1.0234v-3.8408c0-.9346-.1768-1.6172-.5293-2.0469-.3525-.4287-.9043-.6436-1.6553-.6436-.583,0-1.1777.1953-1.7832.5859s-1.1309.916-1.5752,1.5752l-.0918-.2754c.7051-.9355,1.3877-1.6143,2.0469-2.0361.6592-.4209,1.334-.6318,2.0234-.6318.8594,0,1.5146.2295,1.9668.6895s.6787,1.1582.6787,2.0938v4.5303c0,.46.0342.8018.1035,1.0234.0693.2227.207.3721.4141.4492.207.0762.5322.1143.9775.1143.0459,0,.0684.0459.0684.1387,0,.0918-.0225.1377-.0684.1377-.3535,0-.6289-.0078-.8281-.0234l-1.1963-.0225-1.2188.0225c-.1992.0156-.4756.0234-.8281.0234-.0459,0-.0693-.0459-.0693-.1377Z"/>
    <path class="st4" d="M407.7197,143.8654c-.5898-.4678-.8848-1.0693-.8848-1.8057,0-.7666.3174-1.499.9541-2.1963.6357-.6973,1.5527-1.3838,2.748-2.0586l.2529.2988c-.9346.4756-1.6406.9434-2.1152,1.4033-.4756.46-.7129,1.0889-.7129,1.8857,0,.7666.2559,1.3721.7705,1.8174.5127.4443,1.2764.667,2.2881.667,1.1348,0,2.0625-.2871,2.7832-.8623s1.0811-1.3457,1.0811-2.3115c0-.5986-.1494-1.0391-.4492-1.3223-.2988-.2842-.6973-.4648-1.1953-.541-.499-.0771-1.1846-.1152-2.0586-.1152s-1.5684-.0303-2.082-.0918-.9277-.207-1.2412-.4365c-.3145-.2305-.4717-.5908-.4717-1.0811,0-.4756.1338-.8818.4023-1.2197.2676-.3369.7324-.7891,1.3916-1.3564l.2529.2295c-.3838.3223-.6523.6104-.8047.8633-.1543.2529-.2305.5176-.2305.793,0,.3379.1152.5947.3447.7705.2305.1768.625.3027,1.1846.3799s1.3535.1152,2.3809.1152c1.0117,0,1.8555.1416,2.5303.4248.6738.2842,1.0117.9092,1.0117,1.875,0,.8125-.2686,1.5713-.8047,2.2764-.5371.7051-1.2461,1.2656-2.1279,1.6797s-1.7979.6211-2.748.6211c-1.043,0-1.8594-.2344-2.4502-.7021ZM408.3643,134.217c-.6211-.5674-.9316-1.2725-.9316-2.1162,0-.8428.3223-1.5557.9658-2.1387.6445-.582,1.5176-.874,2.6221-.874,1.1504,0,2.0049.2988,2.5645.8975.5596.5977.8398,1.2881.8398,2.0693,0,.5215-.1387,1.0127-.4141,1.4727-.2764.46-.6826.832-1.2197,1.1152-.5361.2842-1.165.4258-1.8857.4258-1.0732,0-1.9199-.2842-2.541-.8516ZM412.6768,134.1945c.3369-.3682.5059-.9277.5059-1.6797,0-.9346-.2529-1.6865-.7588-2.2539-.5059-.5664-1.1426-.8506-1.9092-.8506-.583,0-1.0391.1758-1.3691.5283-.3291.3535-.4941.9053-.4941,1.6562,0,.6904.1299,1.2734.3916,1.748.2598.4756.5938.8281,1,1.0586.4062.2295.832.3447,1.2764.3447.5674,0,1.0195-.1846,1.3574-.5518ZM414.4248,129.2951c.4287-.1533.8965-.2295,1.4023-.2295.0312,0,.0576.0537.0811.1602.0225.1074.0342.2148.0342.3223,0,.1846-.0195.3564-.0576.5176s-.0879.2266-.1494.1953c-.5371-.2139-1.0352-.3223-1.4951-.3223-.3066,0-.6592.0547-1.0576.1611l-.207.6904v-.7822c.5361-.3223,1.0195-.5596,1.4492-.7129Z"/>
  </g>
  <g>
    <path class="st4" d="M281.9604,178.7829l.4688-.0195c-.3647-.3101-.5469-.728-.5469-1.2539,0-.5913.2266-.9937.6797-1.207-.2031-.1406-.3672-.3237-.4922-.5488s-.1875-.4917-.1875-.7988c0-.9272.4907-1.3984,1.4727-1.4141h2.832v.7227h-2.7891c-.3022,0-.5278.0688-.6777.207s-.2246.3696-.2246.6953c0,.2681.0801.4907.2402.668s.3755.2798.6465.3086h2.8047v.7266h-2.7695c-.6147,0-.9219.3008-.9219.9023,0,.4741.2017.7983.6055.9727h3.0859v.7227h-4.2266v-.6836Z"/>
    <path class="st4" d="M286.187,165.0417c-.0835.0415-.2319.0757-.4453.1016.3491.3359.5234.7368.5234,1.2031,0,.4165-.1177.7583-.3535,1.0254s-.5347.4004-.8965.4004c-.4399,0-.7817-.1675-1.0254-.502s-.3652-.8052-.3652-1.4121v-.7031h-.332c-.2524,0-.4536.0757-.6035.2266s-.2246.3735-.2246.668c0,.2578.0649.4741.1953.6484s.2876.2617.4727.2617v.7266c-.2109,0-.4146-.0747-.6113-.2246s-.3521-.353-.4668-.6094-.1719-.5386-.1719-.8457c0-.4868.1216-.8687.3652-1.1445s.5786-.4194,1.0059-.4297h1.9453c.3882,0,.6968-.0493.9258-.1484h.0625v.7578ZM285.6362,166.2409c0-.2266-.0586-.4414-.1758-.6445s-.2695-.3501-.457-.4414h-.8672v.5664c0,.8853.2593,1.3281.7773,1.3281.2266,0,.4038-.0757.5312-.2266s.1914-.3452.1914-.582Z"/>
    <path class="st4" d="M282.6089,156.4563c-.0181.1094-.0273.228-.0273.3555,0,.4741.2017.7954.6055.9648h3v.7227h-4.2266v-.7031l.4883-.0117c-.3774-.2368-.5664-.5728-.5664-1.0078,0-.1406.0181-.2476.0547-.3203h.6719Z"/>
    <path class="st4" d="M285.6753,149.3713c0-.2578-.0781-.4829-.2344-.6758s-.3516-.2993-.5859-.3203v-.6836c.2422.0132.4727.0962.6914.25s.3931.3589.5234.6152.1953.5278.1953.8145c0,.5757-.1919,1.0332-.5762,1.373s-.9097.5098-1.5762.5098h-.1211c-.4116,0-.7773-.0757-1.0977-.2266s-.5688-.3677-.7461-.6504-.2656-.6167-.2656-1.002c0-.4741.1421-.8677.4258-1.1816s.6523-.481,1.1055-.502v.6836c-.2734.021-.498.1245-.6738.3105s-.2637.416-.2637.6895c0,.3672.1323.6519.3965.8535s.6465.3027,1.1465.3027h.1367c.4868,0,.8618-.1001,1.125-.3008s.3945-.4868.3945-.8594Z"/>
    <path class="st4" d="M284.0347,142.2702c-.4141,0-.7866-.0815-1.1172-.2441s-.5859-.3892-.7656-.6797-.2695-.6216-.2695-.9941c0-.5757.1992-1.041.5977-1.3965s.9282-.5332,1.5898-.5332h.0508c.4116,0,.7808.0786,1.1074.2363s.5815.3828.7637.6758.2734.6294.2734,1.0098c0,.5728-.1992,1.0371-.5977,1.3926s-.9258.5332-1.582.5332h-.0508ZM284.1206,141.5437c.4688,0,.8452-.1089,1.1289-.3262s.4258-.5083.4258-.873c0-.3672-.144-.6587-.4316-.875s-.6909-.3242-1.209-.3242c-.4634,0-.8394.1099-1.127.3301s-.4316.5122-.4316.877c0,.3569.1421.6445.4258.8633s.6899.3281,1.2188.3281Z"/>
    <path class="st4" d="M292.0723,178.74c-.3936-.3203-.5898-.7368-.5898-1.25,0-.8931.5039-1.3438,1.5117-1.3516h2.793v.7227h-2.7969c-.3047.0024-.5303.0723-.6758.209-.1465.1367-.2188.3496-.2188.6387,0,.2344.0625.4399.1875.6172s.2891.3149.4922.4141h3.0117v.7227h-6v-.7227h2.2852Z"/>
    <path class="st4" d="M295.8652,168.5027c0,.5728-.1885,1.0391-.5645,1.3984-.377.3594-.8799.5391-1.5098.5391h-.1328c-.4199,0-.7939-.0801-1.123-.2402-.3301-.1602-.5879-.3843-.7734-.6719-.1865-.2876-.2793-.5996-.2793-.9355,0-.5493.1807-.9766.543-1.2812.3613-.3047.8799-.457,1.5547-.457h.3008v2.8633c.416-.0103.7529-.1323,1.0098-.3652.2559-.2329.3848-.5293.3848-.8887,0-.2554-.0527-.4712-.1562-.6484-.1045-.1772-.2422-.332-.4141-.4648l.3438-.4414c.5439.354.8164.8853.8164,1.5938ZM292.0762,168.5925c0,.2915.1055.5366.3184.7344.2119.1978.5098.3203.8926.3672v-2.1172h-.0547c-.3672.021-.6523.1196-.8535.2969-.2021.1772-.3027.4165-.3027.7188Z"/>
    <path class="st4" d="M292.209,159.175c-.0186.1094-.0273.228-.0273.3555,0,.4741.2012.7954.6055.9648h3v.7227h-4.2266v-.7031l.4883-.0117c-.3779-.2368-.5664-.5728-.5664-1.0078,0-.1406.0176-.2476.0547-.3203h.6719Z"/>
    <path class="st4" d="M291.5605,153.0276l.5312-.0234c-.4062-.3228-.6094-.7446-.6094-1.2656,0-.8931.5039-1.3438,1.5117-1.3516h2.793v.7227h-2.7969c-.3047.0024-.5303.0723-.6758.209-.1465.1367-.2188.3496-.2188.6387,0,.2344.0625.4399.1875.6172s.2891.3149.4922.4141h3.0117v.7227h-4.2266v-.6836Z"/>
    <path class="st4" d="M295.7871,141.8874c-.084.0415-.2324.0757-.4453.1016.3486.3359.5234.7368.5234,1.2031,0,.4165-.1182.7583-.3535,1.0254-.2363.2671-.5352.4004-.8965.4004-.4404,0-.7822-.1675-1.0254-.502-.2441-.3345-.3652-.8052-.3652-1.4121v-.7031h-.332c-.2529,0-.4541.0757-.6035.2266-.1504.1509-.2246.3735-.2246.668,0,.2578.0645.4741.1953.6484.1299.1743.2871.2617.4727.2617v.7266c-.2109,0-.415-.0747-.6113-.2246-.1973-.1499-.3525-.353-.4668-.6094-.1152-.2563-.1719-.5386-.1719-.8457,0-.4868.1211-.8687.3652-1.1445.2432-.2759.5781-.4194,1.0059-.4297h1.9453c.3877,0,.6963-.0493.9258-.1484h.0625v.7578ZM295.2363,143.0866c0-.2266-.0586-.4414-.1758-.6445s-.2695-.3501-.457-.4414h-.8672v.5664c0,.8853.2588,1.3281.7773,1.3281.2266,0,.4033-.0757.5312-.2266.127-.1509.1914-.3452.1914-.582Z"/>
    <path class="st4" d="M291.5605,134.6618l.5312-.0234c-.4062-.3228-.6094-.7446-.6094-1.2656,0-.8931.5039-1.3438,1.5117-1.3516h2.793v.7227h-2.7969c-.3047.0024-.5303.0723-.6758.209-.1465.1367-.2188.3496-.2188.6387,0,.2344.0625.4399.1875.6172s.2891.3149.4922.4141h3.0117v.7227h-4.2266v-.6836Z"/>
    <path class="st4" d="M293.6387,126.3073c-.6484,0-1.1699-.1538-1.5645-.4609s-.5918-.7095-.5918-1.207c0-.4946.1689-.8867.5078-1.1758h-2.2031v-.7227h6v.6641l-.4531.0352c.3535.2891.5312.6914.5312,1.207,0,.4897-.2012.8887-.6016,1.1973-.4014.3086-.9248.4629-1.5703.4629h-.0547ZM293.7207,125.5847c.4785,0,.8535-.0991,1.125-.2969.2705-.1978.4062-.4712.4062-.8203,0-.4585-.2061-.793-.6172-1.0039h-1.9414c-.3984.2163-.5977.5483-.5977.9961,0,.354.1367.6304.4102.8281s.6777.2969,1.2148.2969Z"/>
    <path class="st4" d="M295.8652,115.0656c0,.5728-.1885,1.0391-.5645,1.3984-.377.3594-.8799.5391-1.5098.5391h-.1328c-.4199,0-.7939-.0801-1.123-.2402-.3301-.1602-.5879-.3843-.7734-.6719-.1865-.2876-.2793-.5996-.2793-.9355,0-.5493.1807-.9766.543-1.2812.3613-.3047.8799-.457,1.5547-.457h.3008v2.8633c.416-.0103.7529-.1323,1.0098-.3652.2559-.2329.3848-.5293.3848-.8887,0-.2554-.0527-.4712-.1562-.6484-.1045-.1772-.2422-.332-.4141-.4648l.3438-.4414c.5439.354.8164.8853.8164,1.5938ZM292.0762,115.1555c0,.2915.1055.5366.3184.7344.2119.1978.5098.3203.8926.3672v-2.1172h-.0547c-.3672.021-.6523.1196-.8535.2969-.2021.1772-.3027.4165-.3027.7188Z"/>
    <path class="st4" d="M295.1973,107.1018v-2.4727h.5898v3.3555h-.5312l-3.0977-2.332v2.2969h-.5977v-3.2031h.5117l3.125,2.3555Z"/>
  </g>
  <path class="st2" d="M217.1974,91.6226c-8.0248-10.001-16.7864-14.8719-29.6203-14.4652"/>
  <path class="st4" d="M172.2651,35.2816s-13.526,8.0821-7.0473,11.5699c7.0473,3.7939,7.0473-11.5699,7.0473-11.5699Z"/>
  <path class="st4" d="M174.8017,43.923s-9.1679,12.815-1.8351,13.4224c7.9763.6607,1.8351-13.4224,1.8351-13.4224Z"/>
</svg>