<?xml version="1.0" encoding="UTF-8"?>
<svg id="images" xmlns="http://www.w3.org/2000/svg" version="1.1" viewBox="0 0 155 90">
  <defs>
    <style>
      .st0 {
        stroke-width: 2px;
      }

      .st0, .st1 {
        fill: none;
        stroke: #7a724c;
        stroke-miterlimit: 10;
      }

      .st1 {
        stroke-linecap: round;
        stroke-width: 3px;
      }

      .st2 {
        fill: #7a724c;
      }
    </style>
  </defs>
  <g>
    <path class="st0" d="M148.303,24.3376h0c-3.5595,0-6.4451,2.8856-6.4451,6.4451v51.8829c0,1.9577-1.5871,3.5448-3.5448,3.5448h-.3223c-1.9577,0-3.5448-1.5871-3.5448-3.5448V25.7877c0-13.2592-10.7487-24.0079-24.0079-24.0079h0c-13.2592,0-24.0079,10.7487-24.0079,24.0079v49.6223c0,5.9649-4.8355,10.8003-10.8003,10.8003h-1.2728c-5.9649,0-10.8003-4.8355-10.8003-10.8003V25.7877c0-13.2592-10.7487-24.0079-24.0079-24.0079h0c-13.2592,0-24.0079,10.7487-24.0079,24.0079v56.8779c0,1.9577-1.5871,3.5448-3.5448,3.5448h-.3223c-1.9577,0-3.5448-1.5871-3.5448-3.5448V30.7827c0-3.5595-2.8856-6.4451-6.4451-6.4451h0"/>
    <path class="st1" d="M104.7904,21.9201c0-1.5502-1.2567-2.8069-2.8069-2.8069s-2.8069,1.2567-2.8069,2.8069"/>
    <path class="st1" d="M116.0176,21.9201c0-1.5502-1.2567-2.8069-2.8069-2.8069s-2.8069,1.2567-2.8069,2.8069"/>
    <path class="st1" d="M118.2927,30.7427c-2.4371,3.5772-5.2574,5.4474-9.5872,5.6488"/>
    <circle class="st2" cx="42.0473" cy="36.5748" r="2.0076"/>
    <circle id="left_eye"  class="st2" cx="32.3335" cy="22.6693" r="3.9822"/>
    <circle id="right_eye" class="st2" cx="49.3151" cy="22.6693" r="3.9822"/>
  </g>
  <path class="st2" d="M152.5588,8.1898c0,2.874-5.2039,12.9543-5.2039,12.9543,0,0-5.2039-10.0803-5.2039-12.9543s2.3298-5.2039,5.2039-5.2039,5.2039,2.3298,5.2039,5.2039ZM147.3549,10.8528c1.6757,0,3.0341-1.3584,3.0341-3.0341s-1.3584-3.0341-3.0341-3.0341-3.0341,1.3584-3.0341,3.0341,1.3584,3.0341,3.0341,3.0341Z"/>
</svg>