<?xml version="1.0" encoding="UTF-8"?>
<svg id="Isolation_Mode" xmlns="http://www.w3.org/2000/svg" version="1.1" viewBox="0 0 571.9 231.4">
  <!-- Generator: Adobe Illustrator 29.3.1, SVG Export Plug-In . SVG Version: 2.1.0 Build 151)  -->
  <defs>
    <style>
      .st0, .st1, .st2, .st3 {
        fill: none;
        stroke: #7a724c;
        stroke-linecap: round;
        stroke-miterlimit: 10;
      }

      .st1 {
        stroke-width: 2px;
      }

      .st2 {
        stroke-width: 3px;
      }

      .st4 {
        fill: #7a724c;
      }

      .st3 {
        stroke-width: 5px;
      }
    </style>
  </defs>
  <path class="st1" d="M456,70.2h0c-8.2,0-14.9,6.7-14.9,14.9v120c0,4.5-3.7,8.2-8.2,8.2h-.7c-4.5,0-8.2-3.7-8.2-8.2V73.6c0-30.7-24.9-55.5-55.5-55.5h0c-30.7,0-55.5,24.9-55.5,55.5v114.8c0,13.8-11.2,25-25,25h-2.9c-13.8,0-25-11.2-25-25v-114.8c0-30.7-24.9-55.5-55.5-55.5h0c-30.7,0-55.5,24.9-55.5,55.5v131.6c0,4.5-3.7,8.2-8.2,8.2h-.7c-4.5,0-8.2-3.7-8.2-8.2v-120c0-8.2-6.7-14.9-14.9-14.9h0"/>
  <g>
    <line class="st1" x1="512.7" y1="70.2" x2="459.6" y2="70.2"/>
    <line class="st1" x1="517.1" y1="70.2" x2="517.1" y2="70.2"/>
    <line class="st1" x1="520.9" y1="70.2" x2="520.9" y2="70.2"/>
    <line class="st1" x1="524.7" y1="70.2" x2="524.7" y2="70.2"/>
    <line class="st1" x1="540.4" y1="70.2" x2="540.4" y2="70.2"/>
    <line class="st1" x1="571.4" y1="70.2" x2="571.4" y2="70.2"/>
  </g>
  <g>
    <line class="st1" x1="60.3" y1="70.2" x2="113.4" y2="70.2"/>
    <line class="st1" x1="55.9" y1="70.2" x2="55.9" y2="70.2"/>
    <line class="st1" x1="52.1" y1="70.2" x2="52.1" y2="70.2"/>
    <line class="st1" x1="48.3" y1="70.2" x2="48.3" y2="70.2"/>
    <line class="st1" x1="32.6" y1="70.2" x2="32.6" y2="70.2"/>
    <line class="st1" x1="1.6" y1="70.2" x2="1.6" y2="70.2"/>
  </g>
  <path class="st3" d="M353.7,77.5c2.7,0,2.7,4,5.5,4s2.7-4,5.5-4,2.7,4,5.5,4,2.7-4,5.5-4,2.7,4,5.5,4,2.7-4,5.5-4"/>
  <path class="st0" d="M339.8,43c5.8-5.8,15.3-5.8,21.2,0,4.7,4.7,4.7,12.3,0,16.9-3.7,3.7-9.8,3.7-13.5,0-3-3-3-7.8,0-10.8,2.4-2.4,6.3-2.4,8.7,0,1.9,1.9,1.9,5,0,6.9-1.5,1.5-4,1.5-5.5,0-1.2-1.2-1.2-3.2,0-4.4,1-1,2.6-1,3.5,0,.8.8.8,2.1,0,2.8-.6.6-1.6.6-2.3,0-.5-.5-.5-1.3,0-1.8"/>
  <path class="st0" d="M374.4,43c5.8-5.8,15.3-5.8,21.2,0,4.7,4.7,4.7,12.3,0,16.9-3.7,3.7-9.8,3.7-13.5,0-3-3-3-7.8,0-10.8,2.4-2.4,6.3-2.4,8.7,0,1.9,1.9,1.9,5,0,6.9-1.5,1.5-4,1.5-5.5,0-1.2-1.2-1.2-3.2,0-4.4,1-1,2.6-1,3.5,0,.8.8.8,2.1,0,2.8-.6.6-1.6.6-2.3,0-.5-.5-.5-1.3,0-1.8"/>
  <circle class="st3" cx="206.9" cy="59.3" r="5.8"/>
  <circle class="st3" cx="237.1" cy="59.3" r="5.8"/>
  <path class="st2" d="M217.2,91.6c-8-10-16.8-14.9-29.6-14.5"/>
  <path class="st4" d="M172.3,35.3s-13.5,8.1-7,11.6c7,3.8,7-11.6,7-11.6Z"/>
  <path class="st4" d="M174.8,43.9s-9.2,12.8-1.8,13.4c8,.7,1.8-13.4,1.8-13.4Z"/>
</svg>