<?xml version="1.0" encoding="UTF-8"?>
<svg xmlns="http://www.w3.org/2000/svg" version="1.1" viewBox="0 0 150 90">
  <defs>
    <style>
      .cls-1 {
        stroke-width: 2px;
      }

      .cls-1, .cls-2 {
        fill: none;
        stroke: #7a724c;
        stroke-miterlimit: 10;
      }

      .cls-2 {
        stroke-linecap: round;
        stroke-width: 3px;
      }

      .cls-3 {
        fill: #7a724c;
      }
    </style>
  </defs>
  <!-- Generator: Adobe Illustrator 28.7.1, SVG Export Plug-In . SVG Version: 1.2.0 Build 142)  -->
  <g>
    <g id="Layer_1">
      <g>
        <path class="cls-1" d="M148.31,25.343h0c-3.56,0-6.445,2.886-6.445,6.445v51.883c0,1.958-1.587,3.545-3.545,3.545h-.322c-1.958,0-3.545-1.587-3.545-3.545V26.793c0-13.259-10.749-24.008-24.008-24.008h0c-13.259,0-24.008,10.749-24.008,24.008v49.622c0,5.965-4.835,10.8-10.8,10.8h-1.273c-5.965,0-10.8-4.835-10.8-10.8V26.793c0-13.259-10.749-24.008-24.008-24.008h0c-13.259,0-24.008,10.749-24.008,24.008v56.878c0,1.958-1.587,3.545-3.545,3.545h-.322c-1.958,0-3.545-1.587-3.545-3.545V31.788c0-3.56-2.886-6.445-6.445-6.445h0"/>
        <path class="cls-3" d="M116.768,15.835c1.55,0,2.807,1.257,2.807,2.807s-1.257,2.807-2.807,2.807-2.807-1.257-2.807-2.807,1.257-2.807,2.807-2.807M116.768,12.835c-3.202,0-5.807,2.605-5.807,5.807s2.605,5.807,5.807,5.807,5.807-2.605,5.807-5.807-2.605-5.807-5.807-5.807h0Z"/>
        <circle class="cls-3" cx="103.96" cy="31.726" r="2.446"/>
        <path class="cls-3" d="M104.321,13.028c1.55,0,2.807,1.257,2.807,2.807s-1.257,2.807-2.807,2.807-2.807-1.257-2.807-2.807,1.257-2.807,2.807-2.807M104.321,10.028c-3.202,0-5.807,2.605-5.807,5.807s2.605,5.807,5.807,5.807,5.807-2.605,5.807-5.807-2.605-5.807-5.807-5.807h0Z"/>
        <path class="cls-3" d="M53.794,36.979c1.55,0,2.807,1.257,2.807,2.807s-1.257,2.807-2.807,2.807-2.807-1.257-2.807-2.807,1.257-2.807,2.807-2.807M53.794,33.979c-3.202,0-5.807,2.605-5.807,5.807s2.605,5.807,5.807,5.807,5.807-2.605,5.807-5.807-2.605-5.807-5.807-5.807h0Z"/>
        <path class="cls-3" d="M38.54,31.365c1.55,0,2.807,1.257,2.807,2.807s-1.257,2.807-2.807,2.807-2.807-1.257-2.807-2.807,1.257-2.807,2.807-2.807M38.54,28.365c-3.202,0-5.807,2.605-5.807,5.807s2.605,5.807,5.807,5.807,5.807-2.605,5.807-5.807-2.605-5.807-5.807-5.807h0Z"/>
        <path class="cls-2" d="M30.135,47.208c.386-.129,5.148-.901,10.295,5.019"/>
      </g>
    </g>
  </g>
</svg>