<?xml version="1.0" encoding="UTF-8"?>
<svg xmlns="http://www.w3.org/2000/svg" version="1.1" viewBox="0 0 88.091 51.576">
  <defs>
    <style>
      .cls-1 {
        fill: none;
        stroke: #7a724c;
        stroke-linecap: round;
        stroke-miterlimit: 10;
        stroke-width: 2px;
      }
    </style>
  </defs>
  <!-- Generator: Adobe Illustrator 28.7.1, SVG Export Plug-In . SVG Version: 1.2.0 Build 142)  -->
  <g>
    <g id="Layer_1">
      <path class="cls-1" d="M87.091,14.245h0c-2.09,0-3.784,1.694-3.784,3.784v30.464c0,1.15-.932,2.081-2.081,2.081h-.189c-1.15,0-2.081-.932-2.081-2.081V15.097c0-7.786-6.311-14.097-14.097-14.097h0c-7.786,0-14.097,6.311-14.097,14.097v29.137c0,3.502-2.839,6.342-6.342,6.342h-.747c-3.502,0-6.342-2.839-6.342-6.342V15.097c0-7.786-6.311-14.097-14.097-14.097h0c-7.786,0-14.097,6.311-14.097,14.097v33.397c0,1.15-.932,2.081-2.081,2.081h-.189c-1.15,0-2.081-.932-2.081-2.081v-30.464c0-2.09-1.694-3.784-3.784-3.784h0"/>
    </g>
  </g>
</svg>