<?xml version="1.0" encoding="UTF-8"?>
<svg id="images" xmlns="http://www.w3.org/2000/svg" version="1.1" viewBox="0 0 154.2428 86.4306">
  <!-- Generator: Adobe Illustrator 29.0.0, SVG Export Plug-In . SVG Version: 2.1.0 Build 186)  -->
  <defs>
    <style>
      .st0 {
        stroke-width: 2px;
      }

      .st0, .st1 {
        stroke-miterlimit: 10;
      }

      .st0, .st1, .st2 {
        fill: none;
        stroke: #7a724c;
      }

      .st1, .st2 {
        stroke-linecap: round;
        stroke-width: 3px;
      }

      .st3 {
        fill: #7a724c;
      }

      .st2 {
        stroke-linejoin: round;
      }
    </style>
  </defs>
  <g>
    <path class="st0" d="M147.8229,23.5578h0c-3.5595,0-6.4451,2.8856-6.4451,6.4451v51.8829c0,1.9577-1.5871,3.5448-3.5448,3.5448h-.3223c-1.9577,0-3.5448-1.5871-3.5448-3.5448V25.0079c0-13.2592-10.7487-24.0079-24.0079-24.0079h0c-13.2592,0-24.0079,10.7487-24.0079,24.0079v49.6223c0,5.9649-4.8355,10.8003-10.8003,10.8003h-1.2728c-5.9649,0-10.8003-4.8355-10.8003-10.8003V25.0079c0-13.2592-10.7487-24.0079-24.0079-24.0079h0c-13.2592,0-24.0079,10.7487-24.0079,24.0079v56.8779c0,1.9577-1.5871,3.5448-3.5448,3.5448h-.3223c-1.9577,0-3.5448-1.5871-3.5448-3.5448V30.0029c0-3.5595-2.8856-6.4451-6.4451-6.4451h0"/>
    <path class="st3" d="M121.8577,14.4796c1.5502,0,2.8069,1.2567,2.8069,2.8069s-1.2567,2.8069-2.8069,2.8069-2.8069-1.2567-2.8069-2.8069,1.2567-2.8069,2.8069-2.8069M121.8577,11.4796c-3.2019,0-5.8069,2.605-5.8069,5.8069s2.605,5.8069,5.8069,5.8069,5.8069-2.605,5.8069-5.8069-2.605-5.8069-5.8069-5.8069h0Z"/>
    <path class="st1" d="M43.7679,21.1403c0-1.5502-1.2567-2.8069-2.8069-2.8069s-2.8069,1.2567-2.8069,2.8069"/>
    <path class="st1" d="M54.995,21.1403c0-1.5502-1.2567-2.8069-2.8069-2.8069s-2.8069,1.2567-2.8069,2.8069"/>
    <path class="st1" d="M111.423,30.9628c-4.3121-.3769-7.3224-1.9228-9.6149-5.6014"/>
    <path class="st1" d="M103.4884,28.1621s-2.8863.7667-2.4795,2.8007,3.9053,3.691,6.9022-.6721"/>
    <path class="st1" d="M42.9616,32.742c-4.3121-.3769-7.3224-1.9228-9.6149-5.6014"/>
    <path class="st2" d="M100.9697,15.3717h10.2583s-2.9704,4.4895-6.0621,4.0827"/>
  </g>
  <g>
    <polygon class="st3" points="149.4353 34.6806 136.7241 17.4684 139.9467 15.103 152.6579 32.3152 153.0389 36.1995 149.4353 34.6806"/>
    <rect class="st3" x="135.1298" y="13.6207" width="3.9975" height="1.7179" transform="translate(18.0118 83.9426) rotate(-36.2762)"/>
  </g>
</svg>