<?xml version="1.0" encoding="UTF-8"?>
<svg id="images" xmlns="http://www.w3.org/2000/svg" version="1.1" viewBox="0 0 154.2428 86.4306">
  <!-- Generator: Adobe Illustrator 29.0.0, SVG Export Plug-In . SVG Version: 2.1.0 Build 186)  -->
  <defs>
    <style>
      .st0 {
        stroke-width: 2px;
      }

      .st0, .st1 {
        fill: none;
        stroke: #7a724c;
        stroke-miterlimit: 10;
      }

      .st1 {
        stroke-linecap: round;
        stroke-width: 3px;
      }

      .st2 {
        fill: #7a724c;
      }
    </style>
  </defs>
  <g>
    <path class="st0" d="M146.619,23.5578h0c-3.5595,0-6.4451,2.8856-6.4451,6.4451v51.8829c0,1.9577-1.5871,3.5448-3.5448,3.5448h-.3223c-1.9577,0-3.5448-1.5871-3.5448-3.5448V25.0079c0-13.2592-10.7487-24.0079-24.0079-24.0079h0c-13.2592,0-24.0079,10.7487-24.0079,24.0079v49.6223c0,5.9649-4.8355,10.8003-10.8003,10.8003h-1.2728c-5.9649,0-10.8003-4.8355-10.8003-10.8003V25.0079c0-13.2592-10.7487-24.0079-24.0079-24.0079h0c-13.2592,0-24.0079,10.7487-24.0079,24.0079v56.8779c0,1.9577-1.5871,3.5448-3.5448,3.5448h-.3223c-1.9577,0-3.5448-1.5871-3.5448-3.5448V30.0029c0-3.5595-2.8856-6.4451-6.4451-6.4451H0"/>
    <path class="st1" d="M39.7571,18.3334c-1.5502,0-2.8069,1.2567-2.8069,2.8069"/>
    <path class="st1" d="M53.7911,21.1403c0-1.5502-1.2567-2.8069-2.8069-2.8069"/>
    <circle class="st2" cx="46.5209" cy="37.0534" r="2.0076"/>
    <circle class="st2" cx="41.0174" cy="23.1479" r="2.0076"/>
    <circle class="st2" cx="49.5784" cy="23.1479" r="2.0076"/>
  </g>
  <g>
    <rect class="st2" x="146.8638" y="32.5299" width="1.7179" height="3.9975" transform="translate(105.7012 180.2971) rotate(-87.0751)"/>
    <g>
      <path class="st2" d="M144.0333,10.3428l-.108,2.2049c-.0461.9407.5481,1.7344,1.327,1.7724l.3168.0156c.6418.0315,1.1353.5794,1.0997,1.221l-.9272,16.6977,3.9923.2042.9166-16.721c.0349-.6361.5769-1.1247,1.2132-1.0935l.5021.0246c.779.0383,1.4479-.6934,1.494-1.6342l.108-2.2048-9.9347-.4869Z"/>
      <path class="st2" d="M153.186,6.936l-.1969-1.6461c-.7649.0251-1.6049.0189-2.4688-.021l-.2956.7918-.2152-.8149c-.7989-.0499-1.6-.1305-2.3531-.2471l-.4258,2.8468-.1842-2.9596c-.4766-.0906-.9328-.1926-1.3396-.3169l-.282,1.115-.1412-1.2635c-.3557-.1301-.6834-.2708-.9387-.4354l-.2831,5.7782,9.9346.4868.2464-5.0291c-.1976.0174-.4205.029-.6389.0415-.1324.5222-.418,1.6734-.418,1.6734Z"/>
    </g>
  </g>
  <path class="st1" d="M112.3225,29.5904c0-1.5502-1.2567-2.8069-2.8069-2.8069s-2.8069,1.2567-2.8069,2.8069"/>
  <path class="st1" d="M123.5496,29.5904c0-1.5502-1.2567-2.8069-2.8069-2.8069s-2.8069,1.2567-2.8069,2.8069"/>
  <path class="st1" d="M120.5151,37.0534c0,2.9745-2.4113,5.3858-5.3858,5.3858s-5.3858-2.4113-5.3858-5.3858"/>
</svg>