<?xml version="1.0" encoding="UTF-8"?>
<svg id="Layer_1" xmlns="http://www.w3.org/2000/svg" version="1.1" viewBox="0 0 571.9 231.4">
  <!-- Generator: Adobe Illustrator 29.3.1, SVG Export Plug-In . SVG Version: 2.1.0 Build 151)  -->
  <defs>
    <style>
      .st0 {
        stroke-width: 2px;
      }

      .st0, .st1 {
        fill: none;
        stroke: #7a724c;
        stroke-linecap: round;
        stroke-miterlimit: 10;
      }

      .st2 {
        fill: #7a724c;
      }

      .st1 {
        stroke-width: 5px;
      }
    </style>
  </defs>
  <g id="images">
    <g>
      <path class="st0" d="M456,70.5h0c-8.2,0-14.9,6.7-14.9,14.9v120c0,4.5-3.7,8.2-8.2,8.2h-.7c-4.5,0-8.2-3.7-8.2-8.2V73.9c0-30.7-24.9-55.5-55.5-55.5h0c-30.7,0-55.5,24.9-55.5,55.5v114.8c0,13.8-11.2,25-25,25h-2.9c-13.8,0-25-11.2-25-25v-114.8c0-30.7-24.9-55.5-55.5-55.5h0c-30.7,0-55.5,24.9-55.5,55.5v131.6c0,4.5-3.7,8.2-8.2,8.2h-.7c-4.5,0-8.2-3.7-8.2-8.2v-120c0-8.2-6.7-14.9-14.9-14.9h0"/>
      <path class="st2" d="M346.1,34.7c3.6,0,6.5,2.9,6.5,6.5s-2.9,6.5-6.5,6.5-6.5-2.9-6.5-6.5,2.9-6.5,6.5-6.5M346.1,29.7c-6.3,0-11.5,5.2-11.5,11.5s5.2,11.5,11.5,11.5,11.5-5.2,11.5-11.5-5.2-11.5-11.5-11.5h0Z"/>
      <path class="st2" d="M370.4,38.9c3.6,0,6.5,2.9,6.5,6.5s-2.9,6.5-6.5,6.5-6.5-2.9-6.5-6.5,2.9-6.5,6.5-6.5M370.4,33.9c-6.3,0-11.5,5.2-11.5,11.5s5.2,11.5,11.5,11.5,11.5-5.2,11.5-11.5-5.2-11.5-11.5-11.5h0Z"/>
      <path class="st1" d="M174.8,64.9c0,3.6-2.9,6.5-6.5,6.5s-6.5-2.9-6.5-6.5"/>
      <path class="st1" d="M200.8,64.9c0,3.6-2.9,6.5-6.5,6.5s-6.5-2.9-6.5-6.5"/>
      <path class="st2" d="M348.3,60.5c9.5,0,17.3,7.7,17.3,17.3s-7.7,17.3-17.3,17.3-17.3-7.7-17.3-17.3,7.7-17.3,17.3-17.3M348.3,55.5c-12.3,0-22.3,10-22.3,22.3s10,22.3,22.3,22.3,22.3-10,22.3-22.3-10-22.3-22.3-22.3h0Z"/>
      <line class="st1" x1="217.3" y1="71.4" x2="194.3" y2="88.1"/>
    </g>
    <g>
      <line class="st0" x1="512.7" y1="70.5" x2="459.6" y2="70.5"/>
      <line class="st0" x1="517.1" y1="70.5" x2="517.1" y2="70.5"/>
      <line class="st0" x1="520.9" y1="70.5" x2="520.9" y2="70.5"/>
      <line class="st0" x1="524.7" y1="70.5" x2="524.7" y2="70.5"/>
      <line class="st0" x1="540.4" y1="70.5" x2="540.4" y2="70.5"/>
      <line class="st0" x1="571.4" y1="70.5" x2="571.4" y2="70.5"/>
    </g>
    <g>
      <line class="st0" x1="60.3" y1="70.5" x2="113.4" y2="70.5"/>
      <line class="st0" x1="55.9" y1="70.5" x2="55.9" y2="70.5"/>
      <line class="st0" x1="52.1" y1="70.5" x2="52.1" y2="70.5"/>
      <line class="st0" x1="48.3" y1="70.5" x2="48.3" y2="70.5"/>
      <line class="st0" x1="32.6" y1="70.5" x2="32.6" y2="70.5"/>
      <line class="st0" x1="1.6" y1="70.5" x2="1.6" y2="70.5"/>
    </g>
  </g>
</svg>